<?xml version="1.0" encoding="UTF-8"?>
<svg id="Layer_2" data-name="Layer 2" xmlns="http://www.w3.org/2000/svg" viewBox="0 0 510 510.05">
  <defs>
    <style>
      .cls-1 {
        fill: #004574;
        stroke-width: 0px;
      }
    </style>
  </defs>
  <g id="Layer_1-2" data-name="Layer 1">
    <path class="cls-1" d="M493.57,272.8c-12.52-8.14-29.63-8.99-44.09-9.35-11.34-.28-22.65.08-33.99.13-10.4.05-21.55,1.92-31.72-.81-2.99-.8-5.97-2.11-8.02-4.44-1.19-1.35-2.03-3-2.41-4.76-.18-.82-.25-1.7.04-2.49.36-.96,1.21-1.65,2.06-2.24,12.1-8.38,26.98-3.62,40.46-2.98,10.26.49,20.53.78,30.8.68,13.76-.13,31.82.81,44.35-6.03,27.72-15.12,20.98-57.22-1.91-61.04-19.78-3.3-24.04-15.62-15.26-41.97,5.72-17.17-6.68-44.83-38.15-38.15-16.92,3.59-31.48,18.03-43.18,29.86-7.33,7.4-14.24,15.21-20.9,23.21-6.28,7.54-12.83,16.1-22.35,19.64-11.42,4.25-17.38-8.3-11.39-17.26,4.67-6.99,13.18-11.56,19.39-17.09,9-8.01,17.85-16.21,26.3-24.81,9.69-9.86,23.22-22.03,27.27-35.79,8.91-30.29-25.63-55.3-44.51-41.81-16.32,11.65-28.04,5.96-40.46-18.88-8.09-16.19-36.42-26.98-53.95,0-9.07,13.96-9.38,33.52-9.42,49.57-.03,10.31.54,20.63,1.42,30.9.42,4.82.91,9.64,1.47,14.48.91,7.87,3.99,14.54-2.63,21.04-4.63,4.55-12,5.86-17.3,1.65-6.16-4.89-4.9-13.77-2.84-20.42,4.9-15.79,3.96-31.41,3.94-47.85-.01-14.66,1.27-34.23-6.01-47.62-15.1-27.73-57.21-21.02-61.04,1.87-3.31,19.78-15.63,24.03-41.98,15.23-17.16-5.73-44.83,6.65-38.17,38.13,3.42,16.19,15.78,28.86,27,40.23,9.91,10.05,20.39,19.54,31.37,28.42,7.72,6.25,17.52,12.04,19.9,22.48.69,3.02.53,6.45-1.41,8.86-1.89,2.33-5.12,3.23-8.11,3.03-13.41-.91-20.97-14.05-28.96-23.04-7.32-8.23-14.8-16.31-22.56-24.13-10.75-10.82-24.24-26.45-39.47-30.93-30.29-8.91-55.3,25.63-41.81,44.51,11.65,16.32,5.96,28.04-18.88,40.46-16.19,8.09-26.98,36.42,0,53.95,12.52,8.14,29.63,8.99,44.09,9.35,11.34.28,22.65-.08,33.99-.13,10.4-.05,21.55-1.92,31.72.81,2.99.8,5.97,2.11,8.02,4.44,1.19,1.35,2.03,3,2.41,4.76.18.82.25,1.7-.04,2.49-.36.96-1.21,1.65-2.06,2.24-12.1,8.38-26.98,3.62-40.46,2.98-10.26-.49-20.53-.78-30.8-.68-13.76.13-31.82-.81-44.35,6.03-27.72,15.12-20.98,57.22,1.91,61.04,19.78,3.3,24.04,15.62,15.26,41.97-5.72,17.17,6.68,44.83,38.15,38.15,16.92-3.59,31.48-18.03,43.18-29.86,7.33-7.4,14.24-15.21,20.9-23.21,6.28-7.54,12.83-16.1,22.35-19.64,11.42-4.25,17.38,8.3,11.39,17.26-4.67,6.99-13.18,11.56-19.39,17.09-9,8.01-17.85,16.21-26.3,24.81-9.69,9.86-23.22,22.03-27.27,35.79-8.91,30.29,25.63,55.3,44.51,41.81,16.32-11.65,28.04-5.96,40.46,18.88,8.09,16.19,36.42,26.98,53.95,0,9.07-13.96,9.38-33.52,9.42-49.57.03-10.31-.54-20.63-1.42-30.9-.42-4.82-.91-9.64-1.46-14.44-.65-5.66-.59-12.32,2.18-17.67,5.4-10.43,20.4-13.28,22.27,1.07,1.28,9.84-4.99,18.98-5.37,28.69-.44,11.15-.27,22.31-.26,33.46.01,14.66-1.27,34.23,6.01,47.61,15.1,27.73,57.21,21.02,61.04-1.87,3.31-19.78,15.63-24.03,41.98-15.23,17.16,5.73,44.83-6.65,38.17-38.13-3.42-16.19-15.78-28.86-27-40.23-9.91-10.05-20.39-19.54-31.37-28.42-7.72-6.25-17.52-12.04-19.9-22.48-.69-3.02-.53-6.45,1.41-8.86,1.89-2.33,5.12-3.23,8.11-3.03,13.41.91,20.97,14.05,28.96,23.04,7.32,8.23,14.8,16.31,22.56,24.13,10.75,10.83,24.24,26.45,39.47,30.93,30.29,8.91,55.3-25.63,41.81-44.51-11.65-16.32-5.96-28.04,18.88-40.46,16.19-8.09,26.98-36.42,0-53.95ZM255,314.99h0c-31.49-1.88-56.45-28-56.45-59.97s24.96-58.08,56.45-59.97h0c31.49,1.88,56.45,28,56.45,59.97s-24.96,58.08-56.45,59.97Z"/>
  </g>
</svg>