<?xml version="1.0" encoding="UTF-8"?>
<svg id="Layer_2" data-name="Layer 2" xmlns="http://www.w3.org/2000/svg" viewBox="0 0 83 83">
  <defs>
    <style>
      .cls-1 {
        fill: #fdd28a;
      }

      .cls-1, .cls-2 {
        stroke-width: 0px;
      }

      .cls-2 {
        fill: #fff;
      }
    </style>
  </defs>
  <g id="Layer_1-2" data-name="Layer 1">
    <g>
      <circle class="cls-1" cx="41.5" cy="41.5" r="41.5"/>
      <path class="cls-2" d="M82.44,41.5c-5.76-5.01-13.29-8.05-21.52-8.05-5.41,0-10.51,1.32-15.01,3.64,2.32-4.5,3.64-9.6,3.64-15.01,0-8.23-3.04-15.76-8.05-21.52-5.01,5.76-8.05,13.29-8.05,21.52,0,5.41,1.32,10.51,3.64,15.01-4.5-2.32-9.6-3.64-15.01-3.64-8.23,0-15.76,3.04-21.52,8.05,5.76,5.01,13.29,8.05,21.52,8.05,5.41,0,10.51-1.32,15.01-3.64-2.32,4.5-3.64,9.6-3.64,15.01,0,8.23,3.04,15.76,8.05,21.52,5.01-5.76,8.05-13.28,8.05-21.52,0-5.41-1.32-10.51-3.64-15.01,4.5,2.32,9.6,3.64,15.01,3.64,8.23,0,15.76-3.04,21.52-8.05Z"/>
    </g>
  </g>
</svg>