<?xml version="1.0" encoding="UTF-8"?>
<svg id="Layer_2" data-name="Layer 2" xmlns="http://www.w3.org/2000/svg" viewBox="0 0 829 1027">
  <defs>
    <style>
      .cls-1 {
        fill: #1e1e1e;
      }

      .cls-1, .cls-2, .cls-3, .cls-4 {
        stroke-width: 0px;
      }

      .cls-2 {
        fill: #004574;
      }

      .cls-3 {
        fill: #aea298;
      }

      .cls-4 {
        fill: #fff;
      }
    </style>
  </defs>
  <g id="Layer_1-2" data-name="Layer 1">
    <g>
      <path class="cls-4" d="M0,0v1027h829V0H0ZM406.26,177.65v110.13h-146.44c21.39-61.55,78.64-106.72,146.44-110.13ZM578.15,433.7h-155.41v-129.43h151.2c2.76,11.85,4.21,24.18,4.21,36.84v92.59ZM422.74,287.78v-110.13c41.75,2.11,79.5,20.04,107.34,47.88,17.37,17.37,30.89,38.6,39.1,62.25h-146.44ZM422.74,450.19h155.41v55.59c-4.57,1.64-8.99,3.72-13.21,6.09-1.99,1.12-3.98,2.32-6.22,2.76-2.23.44-4.81-.06-6.22-1.85-1.06-1.34-1.3-3.14-2.04-4.68-.75-1.54-2.52-2.92-4.06-2.18-.61.29-1.04.85-1.4,1.42-2.59,4.16-3.33,10.47-8.08,11.65-1.3.33-2.66.15-3.99.01-8.82-.98-17.78-.61-26.48,1.09-1.98-4.74-4.61-9.21-7.81-13.22-.32-.39-2.12,2.77-2.24,3.25-.43,1.72-.79,3.46-1.16,5.18-.74,3.46-1.43,6.94-2.05,10.42-1.25,6.97-2.25,13.98-3,21.01-.49,4.49-.86,9.06-.16,13.51h-67.29v-110.05ZM406.26,450.19v110.05h-147.93c-4.12,0-7.48-3.36-7.48-7.48v-102.57h155.41ZM250.85,433.7v-92.59c0-12.66,1.46-24.99,4.21-36.84h151.2v129.43h-155.41Z"/>
      <g>
        <path class="cls-2" d="M541.83,210.96c-32.68-32.68-77.75-52.96-127.33-52.96-99.16,0-180.29,81.13-180.29,180.29v233.18c0,1.69.51,3.25,1.38,4.56,1.49,2.21,4.01,3.68,6.86,3.68h344.1c2.66,0,5.03-1.27,6.54-3.24.11-.14.21-.29.32-.44.87-1.31,1.38-2.87,1.38-4.56v-233.18c0-49.58-20.28-94.65-52.96-127.33ZM422.74,177.65c41.75,2.11,79.5,20.04,107.34,47.88,17.37,17.37,30.89,38.6,39.1,62.25h-146.44v-110.13ZM422.74,304.27h151.2c2.76,11.85,4.21,24.18,4.21,36.84v92.59h-155.41v-129.43ZM406.26,177.65v110.13h-146.44c21.39-61.55,78.64-106.72,146.44-110.13ZM250.85,341.11c0-12.66,1.46-24.99,4.21-36.84h151.2v129.43h-155.41v-92.59ZM250.85,450.19h155.41v110.05h-147.93c-4.12,0-7.48-3.36-7.48-7.48v-102.57ZM578.15,552.76c0,4.12-3.37,7.48-7.48,7.48h-147.93v-110.05h155.41v102.57Z"/>
        <rect class="cls-3" x="174.11" y="576.03" width="480.78" height="42.13" rx="3.01" ry="3.01"/>
        <g>
          <path class="cls-1" d="M646.78,576.03c-.35,1.45-.78,2.88-1.31,4.29-.78,2.1-1.78,4.14-3.01,6.02-1.46,2.22-3.25,4.21-5.39,5.79-4.94,3.65-11.29,4.8-17.43,5.09-9.74.46-19.58-.98-29.21.57-1.79.29-3.63.72-5.04,1.86-2.01,1.62-2.46,4.53-.28,6.2.98.76,2.2,1.11,3.41,1.35,7.99,1.62,16.01,2.76,24.19,2.97,2.74.07,6.06.39,7.25,2.85.66,1.35.41,3-.28,4.33-.15.29-.31.56-.49.81-2.93,4.29-9.53,4.4-14.89,3.88-3.72-.35-7.45-.71-11.17-1.07-5.05-.49-10.24-1.01-14.93-2.81-1.3-.49-2.56-1.08-3.77-1.8-5.57-3.3-9.69-9.99-7.91-16.22.85-2.94,2.88-5.41,5.14-7.48,4.31-3.95,9.67-6.77,15.37-8.09,11.68-2.71,24.04.84,35.83-1.33,2.11-.39,4.75-2.02,3.88-3.97-.52-1.15-1.97-1.47-3.21-1.62-6.73-.81-13.52-.93-20.3-1.04-3.38-.05-6.76-.1-10.14-.14-26.83-.36-53.66-.46-80.49-.32-1.81.01-3.66.01-5.49-.12-3.23-.22-6.39-.83-9.13-2.5-4.21-2.55-6.76-7.26-7.74-12.09-.08-.4-.15-.8-.21-1.2-.7-4.45-.33-9.02.16-13.51.75-7.03,1.75-14.04,3-21.01.62-3.48,1.31-6.96,2.05-10.42.37-1.72.73-3.46,1.16-5.18.12-.48,1.92-3.64,2.24-3.25,3.2,4.01,5.83,8.48,7.81,13.22,8.7-1.7,17.66-2.07,26.48-1.09,1.33.14,2.69.32,3.99-.01,4.75-1.18,5.49-7.49,8.08-11.65.36-.57.79-1.13,1.4-1.42,1.54-.74,3.31.64,4.06,2.18.74,1.54.98,3.34,2.04,4.68,1.41,1.79,3.99,2.29,6.22,1.85,2.24-.44,4.23-1.64,6.22-2.76,4.22-2.37,8.64-4.45,13.21-6.09,5.39-1.93,10.97-3.27,16.64-3.77,1.74-.16,3.49-.24,5.24-.24,12.3.04,24.86,4.54,33.23,13.57,8.89,9.6,12.21,23.06,13.89,36.04,1.07,8.19,1.57,16.69-.37,24.65Z"/>
          <path class="cls-4" d="M512.86,550.55c-1.35,1.72-3.3,2.98-5.54,2.98s-4.45-.89-6.17-2.26c-1.06-.84-2.05-1.91-2.65-3.13-.22-.45-.38-.95-.43-1.46-.08.72.11,1.46.43,2.12.6,1.22,1.59,2.29,2.65,3.13,1.73,1.37,3.95,2.26,6.17,2.26s4.19-1.26,5.54-2.98c.99-1.27,2.17-2.81,2.28-4.48.01-.17,0-.35-.01-.52-.16,1.62-1.3,3.11-2.26,4.34Z"/>
          <path class="cls-4" d="M547.06,550.55c-1.35,1.72-3.3,2.98-5.54,2.98s-4.45-.89-6.17-2.26c-1.06-.84-2.05-1.91-2.65-3.13-.22-.45-.38-.95-.43-1.46-.08.72.11,1.46.43,2.12.6,1.22,1.59,2.29,2.65,3.13,1.73,1.37,3.95,2.26,6.17,2.26s4.19-1.26,5.54-2.98c.99-1.27,2.17-2.81,2.28-4.48.01-.17,0-.35-.01-.52-.16,1.62-1.3,3.11-2.26,4.34Z"/>
        </g>
      </g>
    </g>
  </g>
</svg>