<?xml version="1.0" encoding="UTF-8"?>
<svg id="Layer_2" data-name="Layer 2" xmlns="http://www.w3.org/2000/svg" viewBox="0 0 1451 2950">
  <defs>
    <style>
      .cls-1 {
        fill: #fbf7f4;
        stroke-width: 0px;
      }
    </style>
  </defs>
  <g id="Layer_1-2" data-name="Layer 1">
    <path class="cls-1" d="M0,0v2950h1451V0H0ZM192,514.19c0-29.38,23.81-53.19,53.19-53.19h933.62c29.38,0,53.19,23.81,53.19,53.19v318.73c-1.19-.09-2.38-.14-3.57-.14-8.94,0-17.88,2.66-26.25,5.57-2.35,1.18-5.09,1.85-7.53,2.83-2.56,1.02-5.09,2.1-7.61,3.22-4.87,2.16-9.66,4.49-14.45,6.83-1.03-2.33-2.03-4.68-3.17-6.96-.95-1.91-1.93-4.14-3.46-5.67-2.79-2.78-5.08,2.07-5.94,4.19-1.67,4.11-3.57,8.11-6.88,11.19-.26.24-.53.48-.85.61-.85.33-2.53-.19-3.43-.28-1.34-.14-2.68-.27-4.03-.39-2.61-.22-5.23-.38-7.85-.43-7.53-.14-15.01.98-22.45,1.99-.33,0-2.89-5.66-3.12-6.09-1.73-3.23-3.23-6.57-5.85-9.2-.18-.19-.39-.38-.66-.39-.18,0-.35.09-.5.19-2.07,1.32-2.31,4.05-2.72,6.24,0,.01-3.62,12.86-7.24,43.4-.94,7.97-.73,16.73,3.27,23.92.91,1.64,2.01,3.14,3.28,4.45H192v-403.81Z"/>
  </g>
</svg>