<?xml version="1.0" encoding="UTF-8"?>
<svg id="Layer_2" data-name="Layer 2" xmlns="http://www.w3.org/2000/svg" viewBox="0 0 493.78 333.15">
  <defs>
    <style>
      .cls-1 {
        fill: #1e1e1e;
      }

      .cls-1, .cls-2 {
        stroke-width: 0px;
      }

      .cls-2 {
        fill: #fff;
      }
    </style>
  </defs>
  <g id="Layer_1-2" data-name="Layer 1">
    <g>
      <g>
        <path class="cls-1" d="M434.78,332.15s7-37-19-63,0-24,10-20c3.86,1.54,7.48,3.71,11,5.9s7.11,4.64,10.56,7.1c.99.7,1.97,1.41,2.94,2.13.72.53,1.41,1.21,2.23,1.64.74.39,2.8.97,2.82-.48.01-.98-1.68-2.17-.76-3.12.58-.6,1.72-.25,2.38,0,3.21,1.21,5.79,4.2,7.83,6.82,7,9,17,21,19,43l1,16s0,4,3,1c3-3,6-3,6,0s-1,3-1,3h-58Z"/>
        <path class="cls-1" d="M345.78,332.15s-2-26-2-108c0-30.22-2.63-60.44-8.25-90.15-3.04-16.07-8.05-31.77-11.73-47.71-3.56-15.4-3.85-31.4-8.49-46.71-4.43-14.64-14.14-37.99-31.85-39.51-15.89-1.37-25.67,17.33-30.73,29.65-5.2,12.66-7.2,25.89-10.03,39.16-2.07,9.69-6.23,18.09-17.04,19.51-12.62,1.66-25.2,4.72-37.99,4.66-17.41-.08-12.66-13.01-17.67-31.41-4.35-15.93-13.02-55.04-34.91-54.43-17.47.48-30.65,24.64-37.52,38.09-7.86,15.41-12.63,32.4-13.61,49.69s5.43,35.89.97,53.38c-2.9,11.37-8.65,21.81-16.14,30.79-11.65,13.94-28.3,26.16-46.02,30.99-6.12,1.67-15.2,4.3-18.07,10.58-3.08,6.74-4.71,18.61-4.71,25.92,0,50,56.28,61,71.28,64s10.5,22.5,10.5,22.5l264-1Z"/>
      </g>
      <path class="cls-2" d="M182.75,159.97c.75,3.96,1.05,7.96.6,11.88-2.58,22.54-39.03,36.82-56.9,23.47-10.45-7.81-11.67-22.66-11.67-34.68,0-18.86,14.09-37.5,34-37.5,13.76,0,23.92,7.85,28.87,20.42,2.03,5.15,4.02,10.74,5.09,16.4Z"/>
      <path class="cls-1" d="M169.79,160.65c.45,2.38.63,4.79.36,7.15-1.55,13.57-23.49,22.16-34.24,14.13-6.29-4.7-7.02-13.64-7.02-20.87,0-11.35,8.48-22.57,20.46-22.57,8.28,0,14.4,4.72,17.38,12.29,1.22,3.1,2.42,6.46,3.07,9.87Z"/>
      <path class="cls-2" d="M285.75,159.97c.75,3.96,1.05,7.96.6,11.88-2.58,22.54-39.03,36.82-56.9,23.47-10.45-7.81-11.67-22.66-11.67-34.68,0-18.86,14.09-37.5,34-37.5,13.76,0,23.92,7.85,28.87,20.42,2.03,5.15,4.02,10.74,5.09,16.4Z"/>
      <path class="cls-1" d="M272.79,160.65c.45,2.38.63,4.79.36,7.15-1.55,13.57-23.49,22.16-34.24,14.13-6.29-4.7-7.02-13.64-7.02-20.87,0-11.35,8.48-22.57,20.46-22.57,8.28,0,14.4,4.72,17.38,12.29,1.22,3.1,2.42,6.46,3.07,9.87Z"/>
    </g>
  </g>
</svg>