<?xml version="1.0" encoding="UTF-8"?>
<svg id="Layer_2" data-name="Layer 2" xmlns="http://www.w3.org/2000/svg" xmlns:xlink="http://www.w3.org/1999/xlink" viewBox="0 0 512 512">
  <defs>
    <style>
      .cls-1 {
        fill: #6091cd;
      }

      .cls-1, .cls-2, .cls-3, .cls-4, .cls-5, .cls-6 {
        stroke-width: 0px;
      }

      .cls-7 {
        clip-path: url(#clippath);
      }

      .cls-2 {
        fill: none;
      }

      .cls-3 {
        fill: #455570;
      }

      .cls-4 {
        fill: #fad08a;
      }

      .cls-5 {
        fill: #6492ce;
      }

      .cls-6 {
        fill: #dca29a;
      }
    </style>
    <clipPath id="clippath">
      <rect class="cls-2" width="512" height="512"/>
    </clipPath>
  </defs>
  <g id="Layer_1-2" data-name="Layer 1">
    <g class="cls-7">
      <path class="cls-3" d="M.6-127.88L-128,.72.6,129.32,129.19.72.6-127.88ZM.6,53.54c-29.17,0-52.82-23.65-52.82-52.82S-28.57-52.09.6-52.09,53.41-28.45,53.41.72,29.77,53.54.6,53.54Z"/>
      <path class="cls-1" d="M258-127.88L129.4.72l128.6,128.6L386.6.72l-128.6-128.6ZM258,53.54c-29.17,0-52.82-23.65-52.82-52.82s23.65-52.82,52.82-52.82,52.82,23.65,52.82,52.82-23.65,52.82-52.82,52.82Z"/>
      <path class="cls-3" d="M515.4-127.88L386.81.72l128.6,128.6L644,.72l-128.6-128.6ZM515.4,53.54c-29.17,0-52.82-23.65-52.82-52.82s23.65-52.82,52.82-52.82,52.82,23.65,52.82,52.82-23.65,52.82-52.82,52.82Z"/>
      <path class="cls-1" d="M.6,129.12l-128.6,128.6L.6,386.32l128.6-128.6L.6,129.12ZM.6,310.54c-29.17,0-52.82-23.65-52.82-52.82S-28.57,204.91.6,204.91s52.82,23.65,52.82,52.82-23.65,52.82-52.82,52.82Z"/>
      <path class="cls-3" d="M258,129.12l-128.6,128.6,128.6,128.6,128.6-128.6-128.6-128.6ZM258,310.54c-29.17,0-52.82-23.65-52.82-52.82s23.65-52.82,52.82-52.82,52.82,23.65,52.82,52.82-23.65,52.82-52.82,52.82Z"/>
      <path class="cls-1" d="M515.4,129.12l-128.6,128.6,128.6,128.6,128.6-128.6-128.6-128.6ZM515.4,310.54c-29.17,0-52.82-23.65-52.82-52.82s23.65-52.82,52.82-52.82,52.82,23.65,52.82,52.82-23.65,52.82-52.82,52.82Z"/>
      <path class="cls-3" d="M.6,386.12l-128.6,128.6L.6,643.32l128.6-128.6L.6,386.12ZM.6,567.54c-29.17,0-52.82-23.65-52.82-52.82s23.65-52.82,52.82-52.82,52.82,23.65,52.82,52.82-23.65,52.82-52.82,52.82Z"/>
      <path class="cls-5" d="M258,386.12l-128.6,128.6,128.6,128.6,128.6-128.6-128.6-128.6ZM258,567.54c-29.17,0-52.82-23.65-52.82-52.82s23.65-52.82,52.82-52.82,52.82,23.65,52.82,52.82-23.65,52.82-52.82,52.82Z"/>
      <path class="cls-3" d="M515.4,386.12l-128.6,128.6,128.6,128.6,128.6-128.6-128.6-128.6ZM515.4,567.54c-29.17,0-52.82-23.65-52.82-52.82s23.65-52.82,52.82-52.82,52.82,23.65,52.82,52.82-23.65,52.82-52.82,52.82Z"/>
      <circle class="cls-6" cx="388" cy="130" r="53"/>
      <circle class="cls-6" cx="388" cy="385" r="53"/>
      <g>
        <rect class="cls-4" x="32" y="97" width="65" height="65" transform="translate(-65 194) rotate(-90)"/>
        <rect class="cls-4" x="97" y="32" width="65" height="65" transform="translate(65 194) rotate(-90)"/>
        <rect class="cls-4" x="162" y="97" width="65" height="65" transform="translate(65 324) rotate(-90)"/>
        <rect class="cls-4" x="97" y="162" width="65" height="65" transform="translate(-65 324) rotate(-90)"/>
      </g>
      <g>
        <rect class="cls-4" x="32" y="352" width="65" height="65" transform="translate(-320 449) rotate(-90)"/>
        <rect class="cls-4" x="97" y="287" width="65" height="65" transform="translate(-190 449) rotate(-90)"/>
        <rect class="cls-4" x="162" y="352" width="65" height="65" transform="translate(-190 579) rotate(-90)"/>
        <rect class="cls-4" x="97" y="417" width="65" height="65" transform="translate(-320 579) rotate(-90)"/>
      </g>
    </g>
  </g>
</svg>