<?xml version="1.0" encoding="UTF-8"?>
<svg id="Layer_2" data-name="Layer 2" xmlns="http://www.w3.org/2000/svg" viewBox="0 0 512 510.7">
  <defs>
    <style>
      .cls-1 {
        fill: #fdd28a;
      }

      .cls-1, .cls-2, .cls-3 {
        stroke-width: 0px;
      }

      .cls-2 {
        fill: #47648a;
      }

      .cls-3 {
        fill: #fff;
      }
    </style>
  </defs>
  <g id="Layer_1-2" data-name="Layer 1">
    <g>
      <path class="cls-2" d="M79.84,175.19c48.8,48.8,111.36,75.36,175.19,79.84-4.48-63.83-31.05-126.4-79.84-175.19C126.4,31.05,63.83,4.48,0,0c4.48,63.83,31.05,126.4,79.84,175.19Z"/>
      <path class="cls-2" d="M335.51,79.84c-48.8,48.8-75.36,111.36-79.84,175.19,63.83-4.48,126.4-31.05,175.19-79.84C479.66,126.4,506.22,63.83,510.7,0c-63.83,4.48-126.4,31.05-175.19,79.84Z"/>
      <path class="cls-2" d="M79.84,335.51C31.05,384.31,4.48,446.87,0,510.7c63.83-4.48,126.4-31.05,175.19-79.84s75.36-111.36,79.84-175.19c-63.83,4.48-126.4,31.05-175.19,79.84Z"/>
      <path class="cls-2" d="M336.81,430.86c48.8,48.8,111.36,75.36,175.19,79.84-4.48-63.83-31.05-126.4-79.84-175.19-48.8-48.8-111.36-75.36-175.19-79.84,4.48,63.83,31.05,126.4,79.84,175.19Z"/>
    </g>
    <g>
      <circle class="cls-1" cx="128.5" cy="128.5" r="54.5"/>
      <path class="cls-3" d="M182.26,128.5c-7.57-6.58-17.45-10.57-28.26-10.57-7.11,0-13.81,1.73-19.72,4.78,3.05-5.91,4.78-12.61,4.78-19.72,0-10.81-3.99-20.69-10.57-28.26-6.58,7.57-10.57,17.45-10.57,28.26,0,7.11,1.73,13.81,4.78,19.72-5.91-3.05-12.61-4.78-19.72-4.78-10.81,0-20.69,3.99-28.26,10.57,7.57,6.58,17.45,10.57,28.26,10.57,7.11,0,13.81-1.73,19.72-4.78-3.05,5.91-4.78,12.61-4.78,19.72,0,10.81,3.99,20.69,10.57,28.26,6.58-7.57,10.57-17.45,10.57-28.26,0-7.11-1.73-13.81-4.78-19.72,5.91,3.05,12.61,4.78,19.72,4.78,10.81,0,20.69-3.99,28.26-10.57Z"/>
    </g>
    <g>
      <circle class="cls-1" cx="383.5" cy="128.5" r="54.5"/>
      <path class="cls-3" d="M437.26,128.5c-7.57-6.58-17.45-10.57-28.26-10.57-7.11,0-13.81,1.73-19.72,4.78,3.05-5.91,4.78-12.61,4.78-19.72,0-10.81-3.99-20.69-10.57-28.26-6.58,7.57-10.57,17.45-10.57,28.26,0,7.11,1.73,13.81,4.78,19.72-5.91-3.05-12.61-4.78-19.72-4.78-10.81,0-20.69,3.99-28.26,10.57,7.57,6.58,17.45,10.57,28.26,10.57,7.11,0,13.81-1.73,19.72-4.78-3.05,5.91-4.78,12.61-4.78,19.72,0,10.81,3.99,20.69,10.57,28.26,6.58-7.57,10.57-17.45,10.57-28.26,0-7.11-1.73-13.81-4.78-19.72,5.91,3.05,12.61,4.78,19.72,4.78,10.81,0,20.69-3.99,28.26-10.57Z"/>
    </g>
    <g>
      <circle class="cls-1" cx="128.5" cy="383.5" r="54.5"/>
      <path class="cls-3" d="M182.26,383.5c-7.57-6.58-17.45-10.57-28.26-10.57-7.11,0-13.81,1.73-19.72,4.78,3.05-5.91,4.78-12.61,4.78-19.72,0-10.81-3.99-20.69-10.57-28.26-6.58,7.57-10.57,17.45-10.57,28.26,0,7.11,1.73,13.81,4.78,19.72-5.91-3.05-12.61-4.78-19.72-4.78-10.81,0-20.69,3.99-28.26,10.57,7.57,6.58,17.45,10.57,28.26,10.57,7.11,0,13.81-1.73,19.72-4.78-3.05,5.91-4.78,12.61-4.78,19.72,0,10.81,3.99,20.69,10.57,28.26,6.58-7.57,10.57-17.45,10.57-28.26,0-7.11-1.73-13.81-4.78-19.72,5.91,3.05,12.61,4.78,19.72,4.78,10.81,0,20.69-3.99,28.26-10.57Z"/>
    </g>
    <g>
      <circle class="cls-1" cx="383.5" cy="383.5" r="54.5"/>
      <path class="cls-3" d="M437.26,383.5c-7.57-6.58-17.45-10.57-28.26-10.57-7.11,0-13.81,1.73-19.72,4.78,3.05-5.91,4.78-12.61,4.78-19.72,0-10.81-3.99-20.69-10.57-28.26-6.58,7.57-10.57,17.45-10.57,28.26,0,7.11,1.73,13.81,4.78,19.72-5.91-3.05-12.61-4.78-19.72-4.78-10.81,0-20.69,3.99-28.26,10.57,7.57,6.58,17.45,10.57,28.26,10.57,7.11,0,13.81-1.73,19.72-4.78-3.05,5.91-4.78,12.61-4.78,19.72,0,10.81,3.99,20.69,10.57,28.26,6.58-7.57,10.57-17.45,10.57-28.26,0-7.11-1.73-13.81-4.78-19.72,5.91,3.05,12.61,4.78,19.72,4.78,10.81,0,20.69-3.99,28.26-10.57Z"/>
    </g>
  </g>
</svg>