<?xml version="1.0" encoding="UTF-8"?>
<svg id="Layer_2" data-name="Layer 2" xmlns="http://www.w3.org/2000/svg" viewBox="0 0 512 512">
  <defs>
    <style>
      .cls-1 {
        fill: #8c9589;
      }

      .cls-1, .cls-2, .cls-3, .cls-4 {
        stroke-width: 0px;
      }

      .cls-2 {
        fill: #fdd28a;
      }

      .cls-3 {
        fill: #47648a;
      }

      .cls-4 {
        fill: #fff;
      }
    </style>
  </defs>
  <g id="Layer_1-2" data-name="Layer 1">
    <g>
      <path class="cls-3" d="M79.84,175.19c48.8,48.8,111.36,75.36,175.19,79.84-4.48-63.83-31.05-126.4-79.84-175.19C126.4,31.05,63.83,4.48,0,0c4.48,63.83,31.05,126.4,79.84,175.19Z"/>
      <path class="cls-3" d="M335.51,79.84c-48.8,48.8-75.36,111.36-79.84,175.19,63.83-4.48,126.4-31.05,175.19-79.84C479.66,126.4,506.22,63.83,510.7,0c-63.83,4.48-126.4,31.05-175.19,79.84Z"/>
      <path class="cls-3" d="M79.84,335.51C31.05,384.31,4.48,446.87,0,510.7c63.83-4.48,126.4-31.05,175.19-79.84s75.36-111.36,79.84-175.19c-63.83,4.48-126.4,31.05-175.19,79.84Z"/>
      <path class="cls-3" d="M336.81,430.86c48.8,48.8,111.36,75.36,175.19,79.84-4.48-63.83-31.05-126.4-79.84-175.19-48.8-48.8-111.36-75.36-175.19-79.84,4.48,63.83,31.05,126.4,79.84,175.19Z"/>
    </g>
    <g>
      <circle class="cls-2" cx="128.5" cy="128.5" r="54.5"/>
      <path class="cls-4" d="M182.26,128.5c-7.57-6.58-17.45-10.57-28.26-10.57-7.11,0-13.81,1.73-19.72,4.78,3.05-5.91,4.78-12.61,4.78-19.72,0-10.81-3.99-20.69-10.57-28.26-6.58,7.57-10.57,17.45-10.57,28.26,0,7.11,1.73,13.81,4.78,19.72-5.91-3.05-12.61-4.78-19.72-4.78-10.81,0-20.69,3.99-28.26,10.57,7.57,6.58,17.45,10.57,28.26,10.57,7.11,0,13.81-1.73,19.72-4.78-3.05,5.91-4.78,12.61-4.78,19.72,0,10.81,3.99,20.69,10.57,28.26,6.58-7.57,10.57-17.45,10.57-28.26,0-7.11-1.73-13.81-4.78-19.72,5.91,3.05,12.61,4.78,19.72,4.78,10.81,0,20.69-3.99,28.26-10.57Z"/>
    </g>
    <g>
      <circle class="cls-2" cx="383.5" cy="128.5" r="54.5"/>
      <path class="cls-4" d="M437.26,128.5c-7.57-6.58-17.45-10.57-28.26-10.57-7.11,0-13.81,1.73-19.72,4.78,3.05-5.91,4.78-12.61,4.78-19.72,0-10.81-3.99-20.69-10.57-28.26-6.58,7.57-10.57,17.45-10.57,28.26,0,7.11,1.73,13.81,4.78,19.72-5.91-3.05-12.61-4.78-19.72-4.78-10.81,0-20.69,3.99-28.26,10.57,7.57,6.58,17.45,10.57,28.26,10.57,7.11,0,13.81-1.73,19.72-4.78-3.05,5.91-4.78,12.61-4.78,19.72,0,10.81,3.99,20.69,10.57,28.26,6.58-7.57,10.57-17.45,10.57-28.26,0-7.11-1.73-13.81-4.78-19.72,5.91,3.05,12.61,4.78,19.72,4.78,10.81,0,20.69-3.99,28.26-10.57Z"/>
    </g>
    <g>
      <circle class="cls-2" cx="128.5" cy="383.5" r="54.5"/>
      <path class="cls-4" d="M182.26,383.5c-7.57-6.58-17.45-10.57-28.26-10.57-7.11,0-13.81,1.73-19.72,4.78,3.05-5.91,4.78-12.61,4.78-19.72,0-10.81-3.99-20.69-10.57-28.26-6.58,7.57-10.57,17.45-10.57,28.26,0,7.11,1.73,13.81,4.78,19.72-5.91-3.05-12.61-4.78-19.72-4.78-10.81,0-20.69,3.99-28.26,10.57,7.57,6.58,17.45,10.57,28.26,10.57,7.11,0,13.81-1.73,19.72-4.78-3.05,5.91-4.78,12.61-4.78,19.72,0,10.81,3.99,20.69,10.57,28.26,6.58-7.57,10.57-17.45,10.57-28.26,0-7.11-1.73-13.81-4.78-19.72,5.91,3.05,12.61,4.78,19.72,4.78,10.81,0,20.69-3.99,28.26-10.57Z"/>
    </g>
    <g>
      <circle class="cls-2" cx="383.5" cy="383.5" r="54.5"/>
      <path class="cls-4" d="M437.26,383.5c-7.57-6.58-17.45-10.57-28.26-10.57-7.11,0-13.81,1.73-19.72,4.78,3.05-5.91,4.78-12.61,4.78-19.72,0-10.81-3.99-20.69-10.57-28.26-6.58,7.57-10.57,17.45-10.57,28.26,0,7.11,1.73,13.81,4.78,19.72-5.91-3.05-12.61-4.78-19.72-4.78-10.81,0-20.69,3.99-28.26,10.57,7.57,6.58,17.45,10.57,28.26,10.57,7.11,0,13.81-1.73,19.72-4.78-3.05,5.91-4.78,12.61-4.78,19.72,0,10.81,3.99,20.69,10.57,28.26,6.58-7.57,10.57-17.45,10.57-28.26,0-7.11-1.73-13.81-4.78-19.72,5.91,3.05,12.61,4.78,19.72,4.78,10.81,0,20.69-3.99,28.26-10.57Z"/>
    </g>
    <path class="cls-1" d="M508.58,303.24c-.21-1.83-1.48-4.65-.08-6.25.74-.85,2.32-.74,3.5-1.01v-20.26c-10.35-.62-18.56-9.21-18.56-19.72s8.21-19.1,18.56-19.71v-18.77c-.3-.17-.65-.25-1.02-.18-.53.09-1.05.33-1.58.24-.9-.15-1.4-1.19-1.4-2.1,0-3.5,1-7.13,1.14-10.68.14-3.67.09-7.33.09-11,0-4.82.42-11.26-1.98-15.65-4.97-9.12-18.81-6.91-20.07.61-1.09,6.5-5.14,7.9-13.8,5.01-5.64-1.88-14.74,2.19-12.55,12.53,1.13,5.32,5.19,9.49,8.88,13.23,3.26,3.3,6.7,6.42,10.31,9.34,2.54,2.05,5.76,3.96,6.54,7.39.23.99.18,2.12-.47,2.91-.62.77-1.68,1.06-2.67.99-4.41-.3-6.89-4.62-9.52-7.58-2.41-2.71-4.87-5.36-7.42-7.93-3.54-3.56-7.97-8.7-12.98-10.17-9.96-2.93-18.18,8.43-13.75,14.63,3.83,5.36,1.96,9.22-6.21,13.3-5.32,2.66-8.87,11.97,0,17.74,4.12,2.68,9.74,2.96,14.49,3.07,3.73.09,7.45-.03,11.17-.04,3.42-.02,7.08-.63,10.43.27.98.26,1.96.69,2.64,1.46.39.44.67.99.79,1.56.06.27.08.56-.01.82-.12.32-.4.54-.68.74-3.98,2.76-8.87,1.19-13.3.98-3.37-.16-6.75-.26-10.13-.22-4.52.04-10.46-.27-14.58,1.98-9.11,4.97-6.9,18.81.63,20.07,6.5,1.08,7.9,5.13,5.02,13.8-1.88,5.64,2.19,14.74,12.54,12.54,5.56-1.18,10.35-5.93,14.2-9.82,2.41-2.43,4.68-5,6.87-7.63,2.07-2.48,4.22-5.29,7.35-6.46,3.76-1.4,5.71,2.73,3.75,5.67-1.54,2.3-4.33,3.8-6.38,5.62-2.96,2.63-5.87,5.33-8.65,8.16-3.19,3.24-7.63,7.24-8.96,11.77-2.93,9.96,8.43,18.18,14.63,13.75,5.36-3.83,9.22-1.96,13.3,6.21,2.66,5.32,11.97,8.87,17.74,0,2.98-4.59,3.08-11.02,3.1-16.3,0-3.39-.18-6.78-.47-10.16-.14-1.59-.3-3.17-.48-4.75Z"/>
    <path class="cls-1" d="M208.76,508.58c1.83-.21,4.65-1.48,6.25-.08.85.74.74,2.32,1.01,3.5h20.26c.62-10.35,9.21-18.56,19.72-18.56s19.1,8.21,19.71,18.56h18.77c.17-.3.25-.65.18-1.02-.09-.53-.33-1.05-.24-1.58.15-.9,1.19-1.4,2.1-1.4,3.5,0,7.13,1,10.68,1.14,3.67.14,7.33.09,11,.09,4.82,0,11.26.42,15.65-1.98,9.12-4.97,6.91-18.81-.61-20.07-6.5-1.09-7.9-5.14-5.01-13.8,1.88-5.64-2.19-14.74-12.53-12.55-5.32,1.13-9.49,5.19-13.23,8.88-3.3,3.26-6.42,6.7-9.34,10.31-2.05,2.54-3.96,5.76-7.39,6.54-.99.23-2.12.18-2.91-.47-.77-.62-1.06-1.68-.99-2.67.3-4.41,4.62-6.89,7.58-9.52,2.71-2.41,5.36-4.87,7.93-7.42,3.56-3.54,8.7-7.97,10.17-12.98,2.93-9.96-8.43-18.18-14.63-13.75-5.36,3.83-9.22,1.96-13.3-6.21-2.66-5.32-11.97-8.87-17.74,0-2.68,4.12-2.96,9.74-3.07,14.49-.09,3.73.03,7.45.04,11.17.02,3.42.63,7.08-.27,10.43-.26.98-.69,1.96-1.46,2.64-.44.39-.99.67-1.56.79-.27.06-.56.08-.82-.01-.32-.12-.54-.4-.74-.68-2.76-3.98-1.19-8.87-.98-13.3.16-3.37.26-6.75.22-10.13-.04-4.52.27-10.46-1.98-14.58-4.97-9.11-18.81-6.9-20.07.63-1.08,6.5-5.13,7.9-13.8,5.02-5.64-1.88-14.74,2.19-12.54,12.54,1.18,5.56,5.93,10.35,9.82,14.2,2.43,2.41,5,4.68,7.63,6.87,2.48,2.07,5.29,4.22,6.46,7.35,1.4,3.76-2.73,5.71-5.67,3.75-2.3-1.54-3.8-4.33-5.62-6.38-2.63-2.96-5.33-5.87-8.16-8.65-3.24-3.19-7.24-7.63-11.77-8.96-9.96-2.93-18.18,8.43-13.75,14.63,3.83,5.36,1.96,9.22-6.21,13.3-5.32,2.66-8.87,11.97,0,17.74,4.59,2.98,11.02,3.08,16.3,3.1,3.39,0,6.78-.18,10.16-.47,1.59-.14,3.17-.3,4.75-.48Z"/>
    <path class="cls-1" d="M303.24,3.42c-1.83.21-4.65,1.48-6.25.08-.85-.74-.74-2.32-1.01-3.5h-20.26c-.62,10.35-9.21,18.56-19.72,18.56-10.51,0-19.1-8.21-19.71-18.56h-18.77c-.17.3-.25.65-.18,1.02.09.53.33,1.05.24,1.58-.15.9-1.19,1.4-2.1,1.4-3.5,0-7.13-1-10.68-1.14-3.67-.14-7.33-.09-11-.09-4.82,0-11.26-.42-15.65,1.98-9.12,4.97-6.91,18.81.61,20.07,6.5,1.09,7.9,5.14,5.01,13.8-1.88,5.64,2.19,14.74,12.53,12.55,5.32-1.13,9.49-5.19,13.23-8.88,3.3-3.26,6.42-6.7,9.34-10.31,2.05-2.54,3.96-5.76,7.39-6.54.99-.23,2.12-.18,2.91.47.77.62,1.06,1.68.99,2.67-.3,4.41-4.62,6.89-7.58,9.52-2.71,2.41-5.36,4.87-7.93,7.42-3.56,3.54-8.7,7.97-10.17,12.98-2.93,9.96,8.43,18.18,14.63,13.75,5.36-3.83,9.22-1.96,13.3,6.21,2.66,5.32,11.97,8.87,17.74,0,2.68-4.12,2.96-9.74,3.07-14.49.09-3.73-.03-7.45-.04-11.17-.02-3.42-.63-7.08.27-10.43.26-.98.69-1.96,1.46-2.64.44-.39.99-.67,1.56-.79.27-.06.56-.08.82.01.32.12.54.4.74.68,2.76,3.98,1.19,8.87.98,13.3-.16,3.37-.26,6.75-.22,10.13.04,4.52-.27,10.46,1.98,14.58,4.97,9.11,18.81,6.9,20.07-.63,1.08-6.5,5.13-7.9,13.8-5.02,5.64,1.88,14.74-2.19,12.54-12.54-1.18-5.56-5.93-10.35-9.82-14.2-2.43-2.41-5-4.68-7.63-6.87-2.48-2.07-5.29-4.22-6.46-7.35-1.4-3.76,2.73-5.71,5.67-3.75,2.3,1.54,3.8,4.33,5.62,6.38,2.63,2.96,5.33,5.87,8.16,8.65,3.24,3.19,7.24,7.63,11.77,8.96,9.96,2.93,18.18-8.43,13.75-14.63-3.83-5.36-1.96-9.22,6.21-13.3,5.32-2.66,8.87-11.97,0-17.74-4.59-2.98-11.02-3.08-16.3-3.1-3.39,0-6.78.18-10.16.47-1.59.14-3.17.3-4.75.48Z"/>
    <path class="cls-1" d="M3.42,208.76c.21,1.83,1.48,4.65.08,6.25-.74.85-2.32.74-3.5,1.01v20.26c10.35.62,18.56,9.21,18.56,19.72S10.35,275.1,0,275.71v18.77c.3.17.65.25,1.02.18.53-.09,1.05-.33,1.58-.24.9.15,1.4,1.19,1.4,2.1,0,3.5-1,7.13-1.14,10.68-.14,3.67-.09,7.33-.09,11,0,4.82-.42,11.26,1.98,15.65,4.97,9.12,18.81,6.91,20.07-.61,1.09-6.5,5.14-7.9,13.8-5.01,5.64,1.88,14.74-2.19,12.55-12.53-1.13-5.32-5.19-9.49-8.88-13.23-3.26-3.3-6.7-6.42-10.31-9.34-2.54-2.05-5.76-3.96-6.54-7.39-.23-.99-.18-2.12.47-2.91.62-.77,1.68-1.06,2.67-.99,4.41.3,6.89,4.62,9.52,7.58,2.41,2.71,4.87,5.36,7.42,7.93,3.54,3.56,7.97,8.7,12.98,10.17,9.96,2.93,18.18-8.43,13.75-14.63-3.83-5.36-1.96-9.22,6.21-13.3,5.32-2.66,8.87-11.97,0-17.74-4.12-2.68-9.74-2.96-14.49-3.07-3.73-.09-7.45.03-11.17.04-3.42.02-7.08.63-10.43-.27-.98-.26-1.96-.69-2.64-1.46-.39-.44-.67-.99-.79-1.56-.06-.27-.08-.56.01-.82.12-.32.4-.54.68-.74,3.98-2.76,8.87-1.19,13.3-.98,3.37.16,6.75.26,10.13.22,4.52-.04,10.46.27,14.58-1.98,9.11-4.97,6.9-18.81-.63-20.07-6.5-1.08-7.9-5.13-5.02-13.8,1.88-5.64-2.19-14.74-12.54-12.54-5.56,1.18-10.35,5.93-14.2,9.82-2.41,2.43-4.68,5-6.87,7.63-2.07,2.48-4.22,5.29-7.35,6.46-3.76,1.4-5.71-2.73-3.75-5.67,1.54-2.3,4.33-3.8,6.38-5.62,2.96-2.63,5.87-5.33,8.65-8.16,3.19-3.24,7.63-7.24,8.96-11.77,2.93-9.96-8.43-18.18-14.63-13.75-5.36,3.83-9.22,1.96-13.3-6.21-2.66-5.32-11.97-8.87-17.74,0-2.98,4.59-3.08,11.02-3.1,16.3,0,3.39.18,6.78.47,10.16.14,1.59.3,3.17.48,4.75Z"/>
  </g>
</svg>