<?xml version="1.0" encoding="UTF-8"?>
<svg id="Layer_2" data-name="Layer 2" xmlns="http://www.w3.org/2000/svg" viewBox="0 0 479.38 354.44">
  <defs>
    <style>
      .cls-1 {
        fill: #1e1e1e;
      }

      .cls-1, .cls-2 {
        stroke-width: 0px;
      }

      .cls-2 {
        fill: #fff;
      }
    </style>
  </defs>
  <g id="Layer_1-2" data-name="Layer 1">
    <g>
      <path class="cls-1" d="M195.67,45.93c11.92-5.82,23.85-11.61,35.97-17,6.26-2.78,12.57-5.47,18.94-8.02s12.9-4.11,18.73-7.03C290.15,6.63,312.41,0,334.66,0c33.76,0,67.99,15.11,93.38,36.81,36.47,31.16,41.81,75.38,48.86,119.91,5.15,32.57,3.18,71.57-14.63,100.26-22.11,35.61-69.93,34.72-107.11,32.53-68-4-99,18-127,46s-107,26-98-13c0,0,5-20,41-14,11.74,1.96,23.71,0,34.26-5.48,7.74-4.01,13.08-10.45,19.45-16.14,14.83-13.26,34.43-22.35,52.82-29.54,16.21-6.34,31.25-8.83,48.48-8.83,13.05,0,26.11.01,39.14.84,13.34.85,26.98,1.18,39.99-2.41,2.82-.78,5.69-1.8,7.74-3.88s3-5.51,1.47-8c-1.4-2.29-4.3-3.1-6.94-3.63-26.53-5.38-54.16-3.34-81.05-3.86-32.86-.64-65.73-.99-98.6-1.27-33.47-.29-66.94-.47-100.42-.6-15.67,0-31.34-.15-47.01-.21-14.53-.05-29.16,2.36-43.42-1.48-12.16-3.53-21.62-11.94-27.76-22.97C-.66,183.15-1.19,161.34,1.16,141.5,10.16,65.5,19.16,33.5,19.16,33.5c1.02-5.46,1.63-12.25,6.78-15.55.38-.25.81-.47,1.26-.46.65.01,1.19.5,1.64.96,6.5,6.57,10.25,14.86,14.55,22.9.58,1.09,6.99,15.26,7.77,15.16,18.52-2.5,37.13-5.29,55.87-4.94,6.52.12,13.04.53,19.54,1.07,3.35.28,6.7.61,10.05.95,2.23.23,6.4,1.53,8.52.7.81-.32,1.49-.91,2.13-1.51,8.24-7.65,12.97-17.61,17.12-27.85,2.14-5.28,7.85-17.35,14.78-10.42,3.81,3.81,6.25,9.35,8.62,14.11,2.83,5.68,5.33,11.51,7.89,17.32Z"/>
      <g>
        <path class="cls-2" d="M77.27,137.18c-.31,5.05-3.89,9.71-6.89,13.54-4.07,5.2-9.99,9.02-16.75,9.02s-13.44-2.69-18.66-6.84c-3.21-2.53-6.2-5.77-8.02-9.46-1.11-2.25-1.69-4.84-1.17-7.29,1.05-4.99,6.18-6.39,10.55-7.26.88-.18,1.77-.34,2.67-.47,8.25-1.34,16.86-1.32,25.21-.35,1.81.2,3.6.46,5.38.75,2.42.4,4.89,1.35,6.34,3.31.46.64.8,1.34,1.02,2.09.27.96.38,1.97.31,2.96Z"/>
        <path class="cls-1" d="M64.15,136.22c-.18,3.1-.34,6.26-1.72,9.1-2.63,5.45-9.09,7.92-14.67,5.85-5.32-1.96-7.98-6.69-8.67-12.17-.4-3.21-.29-6.44-.25-9.66,0-.31.03-.65.15-.92,8.25-1.34,16.86-1.32,25.21-.35.63.71,0,7.48-.06,8.15Z"/>
      </g>
      <g>
        <path class="cls-2" d="M180.64,137.18c-.31,5.05-3.89,9.71-6.89,13.54-4.07,5.2-9.99,9.02-16.75,9.02s-13.44-2.69-18.66-6.84c-3.21-2.53-6.2-5.77-8.02-9.46-1.11-2.25-1.69-4.84-1.17-7.29,1.05-4.99,6.18-6.39,10.55-7.26.88-.18,1.77-.34,2.67-.47,8.25-1.34,16.86-1.32,25.21-.35,1.81.2,3.6.46,5.38.75,2.42.4,4.89,1.35,6.34,3.31.46.64.8,1.34,1.02,2.09.27.96.38,1.97.31,2.96Z"/>
        <path class="cls-1" d="M167.53,136.22c-.18,3.1-.34,6.26-1.72,9.1-2.63,5.45-9.09,7.92-14.67,5.85-5.32-1.96-7.98-6.69-8.67-12.17-.4-3.21-.29-6.44-.25-9.66,0-.31.03-.65.15-.92,8.25-1.34,16.86-1.32,25.21-.35.63.71,0,7.48-.06,8.15Z"/>
      </g>
    </g>
  </g>
</svg>