<?xml version="1.0" encoding="UTF-8"?>
<svg id="Layer_1" data-name="Layer 1" xmlns="http://www.w3.org/2000/svg" viewBox="0 0 512 512">
  <defs>
    <style>
      .cls-1 {
        fill: #1e1e1e;
      }

      .cls-1, .cls-2 {
        stroke-width: 0px;
      }

      .cls-2 {
        fill: #fff;
      }
    </style>
  </defs>
  <path class="cls-1" d="M480.11,330.86c-36.86,59.36-124.5,19.69-178.73,38.71-20.9,7.33-36.55,9.98-58.46,5.53-31.25-6.35-60.94-18.71-91.23-28.37-6.78-2.16-13.52-5.18-18.43-10.35-13.53-14.25-3.44-27.66,13.46-27.25,20.53.51,37.01,9,54.88,17.97,16.98,8.53,36.32,12.68,55.28,12.76s35.18-7.09,53.66-12.32c36.24-10.25,76.04,3.39,112.59-6.72,2.82-.78,5.7-1.8,7.74-3.88,2.05-2.09,3-5.51,1.48-8-1.4-2.3-4.3-3.1-6.94-3.64-26.53-5.38-54.16-3.33-81.05-3.85-32.86-.64-65.73-1-98.6-1.28-33.48-.28-66.95-.47-100.42-.6-15.67,0-31.34-.15-47.01-.2-14.53-.06-29.16,2.36-43.42-1.48-12.16-3.53-21.62-11.94-27.76-22.97-9.96-17.89-10.49-39.7-8.14-59.54,9-76,18-108,18-108,1.02-5.46,1.63-12.25,6.78-15.55.38-.25.8-.47,1.26-.47.65.02,1.18.5,1.64.96,6.5,6.57,10.25,14.86,14.55,22.9.58,1.09,6.99,15.27,7.77,15.16,18.52-2.5,37.13-5.29,55.87-4.94,6.52.13,13.04.53,19.54,1.08,3.35.28,6.7.6,10.05.95,2.22.23,6.39,1.53,8.51.69.82-.32,1.49-.91,2.13-1.51,8.25-7.65,12.97-17.6,17.12-27.85,2.14-5.28,7.85-17.35,14.78-10.42,3.81,3.81,6.25,9.35,8.62,14.11,2.82,5.68,5.33,11.52,7.89,17.32,11.92-5.82,23.85-11.61,35.97-17,6.26-2.78,12.57-5.47,18.93-8.02,6.08-2.44,12.9-4.11,18.74-7.03,20.83-7.25,43.1-13.88,65.35-13.88,33.76,0,67.99,15.11,93.38,36.81,36.47,31.16,41.82,75.38,48.86,119.9,5.16,32.58,3.19,71.57-14.63,100.26Z"/>
  <g>
    <path class="cls-2" d="M95.11,211.06c-.31,5.05-3.89,9.71-6.89,13.54-4.07,5.2-9.99,9.02-16.75,9.02s-13.44-2.69-18.66-6.84c-3.21-2.53-6.2-5.77-8.02-9.46-1.11-2.25-1.69-4.84-1.17-7.29,1.05-4.99,6.18-6.39,10.55-7.26.88-.18,1.77-.34,2.67-.47,8.25-1.34,16.86-1.32,25.21-.35,1.81.2,3.6.46,5.38.75,2.42.4,4.89,1.35,6.34,3.31.46.64.8,1.34,1.02,2.09.27.96.38,1.97.31,2.96Z"/>
    <path class="cls-1" d="M81.99,210.1c-.18,3.1-.34,6.26-1.72,9.1-2.63,5.45-9.09,7.92-14.67,5.85-5.32-1.96-7.98-6.69-8.67-12.17-.4-3.21-.29-6.44-.25-9.66,0-.31.03-.65.15-.92,8.25-1.34,16.86-1.32,25.21-.35.63.71,0,7.48-.06,8.15Z"/>
  </g>
  <g>
    <path class="cls-2" d="M198.48,211.06c-.31,5.05-3.89,9.71-6.89,13.54-4.07,5.2-9.99,9.02-16.75,9.02s-13.44-2.69-18.66-6.84c-3.21-2.53-6.2-5.77-8.02-9.46-1.11-2.25-1.69-4.84-1.17-7.29,1.05-4.99,6.18-6.39,10.55-7.26.88-.18,1.77-.34,2.67-.47,8.25-1.34,16.86-1.32,25.21-.35,1.81.2,3.6.46,5.38.75,2.42.4,4.89,1.35,6.34,3.31.46.64.8,1.34,1.02,2.09.27.96.38,1.97.31,2.96Z"/>
    <path class="cls-1" d="M185.36,210.1c-.18,3.1-.34,6.26-1.72,9.1-2.63,5.45-9.09,7.92-14.67,5.85-5.32-1.96-7.98-6.69-8.67-12.17-.4-3.21-.29-6.44-.25-9.66,0-.31.03-.65.15-.92,8.25-1.34,16.86-1.32,25.21-.35.63.71,0,7.48-.06,8.15Z"/>
  </g>
</svg>