<?xml version="1.0" encoding="UTF-8"?>
<svg id="Layer_2" data-name="Layer 2" xmlns="http://www.w3.org/2000/svg" viewBox="0 0 381.38 422.25">
  <defs>
    <style>
      .cls-1 {
        fill: #1e1e1e;
      }

      .cls-1, .cls-2 {
        stroke-width: 0px;
      }

      .cls-2 {
        fill: #fff;
      }
    </style>
  </defs>
  <g id="Layer_1-2" data-name="Layer 1">
    <g>
      <path class="cls-1" d="M374.12,228.73c1.8-4.76,2.73-10,4.01-14.91,5.02-20.67,3.03-33.35,1.81-42.79-.36-2.75-.9-5.93-2.27-7.55-.28-.33-.79-.83-1.26-.37-.75.73-.18,2.1-.46,3.01-.41,1.33-1.34.48-1.63,0-.31-.53-.49-1.27-.73-1.87-.32-.82-.64-1.63-.97-2.44-1.15-2.83-2.35-5.59-3.64-8.25-1.26-2.59-2.58-5.17-4.2-7.21-4.2-5.29-17.44-11.26-10.83,16.91,1.8,7.68,1.95,15.64,1.38,23.48-.51,7-.71,14.46-2.8,21.22-.56,1.81-1.64,2.38-3.47,2.48-5.4.32-10.75.82-16.13,1.27-7.11.59-14.21,1.19-21.32,1.78-26.51,2.22-53.2,2.14-78.7-6.31-.97-.32-2.02-.71-2.57-1.57-.46-.72-.49-1.63-.5-2.48-.22-17.87-.53-35.74-.53-53.62,0-20.16-1.76-40.31-5.5-60.13-2.03-10.72-5.37-21.19-7.83-31.82-2.37-10.27-2.57-20.94-5.66-31.16-2.96-9.77-9.43-25.34-21.24-26.35-10.6-.91-17.12,11.56-20.5,19.78-3.47,8.44-4.8,17.27-6.69,26.12-1.38,6.46-4.15,12.07-11.36,13.02-8.42,1.11-16.81,3.15-25.34,3.11-11.61-.05-8.44-8.68-11.79-20.95-2.9-10.63-8.69-36.71-23.28-36.31-11.65.32-20.44,16.43-25.02,25.41-5.24,10.28-8.42,21.61-9.08,33.14-.67,11.83,3.62,23.94.65,35.6-1.93,7.58-5.77,14.55-10.77,20.53-7.77,9.3-18.88,17.45-30.69,20.67-4.08,1.11-10.14,2.87-12.05,7.06-2.05,4.49-3.14,12.41-3.14,17.29,0,33.35,37.53,40.68,47.54,42.69,11,2.2,36.79,1.36,38.22,9.43,3.6,20.3,3.52,40.97,5.18,61.46,1.59,19.63,7.95,39.87,3.86,59.54-1.6,7.7-2.17,15.29-3.07,23.09-1.86,16.04-3.71,32.09-5.63,48.12-.2,1.69-.4,3.45.11,5.07,1.78,5.66,9.72,6.43,14.58,7.39,7.91,1.55,16.69,1.22,24.32-1.49,3.65-1.3,8.03-3.21,10.49-6.36,3.27-4.2,1.9-9.38,9.04-8.48,10.69,1.34,24.24,5.97,31.82-4.76,8.02-11.35-.39-50.35,8.43-62.19,4.39-5.89,12.22-4.13,18.59-3.73,18.44,1.16,36.28-6.23,53.82-11.76,16.32-5.14,36.74-8.31,52.98-.83,19.05,8.78,5.4,41.27,4.58,56.64-.33,6.19-.36,13.19,4.04,17.56,1.31,1.3,2.99,2.31,3.86,3.95,1.29,2.41.44,5.35.53,8.09.16,4.79,3.43,9.11,7.61,11.45,4.18,2.34,9.14,2.92,13.93,2.66,6.29-.34,12.63-2.15,17.6-6.02,10.18-7.93,12.44-22.43,11.64-35.31-.15-2.43-.29-4.85-.41-7.28-1.71-33.89-.77-67.76-.8-101.81-.01-6.98-.03-13.97-.08-20.95-.02-3.56-.05-7.13-.09-10.69-.03-3.23-.55-6.61.77-9.63.24-.54.46-1.09.67-1.65Z"/>
      <path class="cls-2" d="M121.89,106.7c.5,2.64.7,5.31.4,7.93-1.72,15.03-26.04,24.56-37.95,15.66-6.97-5.21-7.78-15.11-7.78-23.13,0-12.58,9.4-25.01,22.68-25.01,9.18,0,15.96,5.23,19.26,13.62,1.35,3.44,2.68,7.16,3.4,10.94Z"/>
      <path class="cls-1" d="M113.25,107.15c.3,1.59.42,3.2.24,4.77-1.03,9.05-15.67,14.78-22.84,9.42-4.2-3.13-4.68-9.1-4.68-13.92,0-7.57,5.66-15.05,13.65-15.05,5.52,0,9.6,3.15,11.59,8.2.81,2.07,1.61,4.31,2.04,6.58Z"/>
      <path class="cls-2" d="M190.59,106.7c.5,2.64.7,5.31.4,7.93-1.72,15.03-26.04,24.56-37.95,15.66-6.97-5.21-7.78-15.11-7.78-23.13,0-12.58,9.4-25.01,22.68-25.01,9.18,0,15.96,5.23,19.26,13.62,1.35,3.44,2.68,7.16,3.4,10.94Z"/>
      <path class="cls-1" d="M181.95,107.15c.3,1.59.42,3.2.24,4.77-1.03,9.05-15.67,14.78-22.84,9.42-4.2-3.13-4.68-9.1-4.68-13.92,0-7.57,5.66-15.05,13.65-15.05,5.52,0,9.6,3.15,11.59,8.2.81,2.07,1.61,4.31,2.04,6.58Z"/>
    </g>
  </g>
</svg>