<?xml version="1.0" encoding="UTF-8"?>
<svg id="Layer_2" data-name="Layer 2" xmlns="http://www.w3.org/2000/svg" viewBox="0 0 423.2 497.65">
  <defs>
    <style>
      .cls-1 {
        fill: #1e1e1e;
      }

      .cls-1, .cls-2 {
        stroke-width: 0px;
      }

      .cls-2 {
        fill: #fff;
      }
    </style>
  </defs>
  <g id="Layer_1-2" data-name="Layer 1">
    <g>
      <path class="cls-1" d="M421.06,481.69c-1.38-2.89-3.3-5.6-5.25-8.24-2-2.69-4.12-5.32-6.31-7.91-.62-.74-1.25-1.47-1.89-2.2-.47-.54-1.07-1.06-1.46-1.67-.35-.56-.86-2.1.41-2.12.86-.01,1.92,1.25,2.75.55.53-.44.21-1.3,0-1.79-1.08-2.41-3.73-4.33-6.05-5.85-7.97-5.22-18.59-12.67-38-14.07l-13.85-.66c-.28-.85-.56-1.71-.85-2.56,2.3-2.17,2.2-4.23-.33-4.22-.47,0-.84.03-1.16.08-2.88-7.79-6.14-15.47-8.57-22.85-8.77-26.56-20.08-52.22-32.48-77.26-18.39-37.13-45.87-75.55-47.89-118.2-.66-13.96,2.09-27.84,2.09-41.77,0-23.05-2.01-46.09-6.29-68.75-2.32-12.26-6.14-24.24-8.95-36.39-2.71-11.75-2.94-23.96-6.47-35.63-3.39-11.16-10.79-28.97-24.3-30.13-12.12-1.04-19.57,13.21-23.44,22.61-3.97,9.66-5.49,19.75-7.65,29.87-1.58,7.39-4.75,13.8-13,14.88-9.63,1.27-19.22,3.6-28.97,3.55-13.28-.06-9.66-9.92-13.48-23.95-3.32-12.16-9.94-41.98-26.62-41.52-13.33.37-23.38,18.79-28.61,29.05-6,11.75-9.64,24.72-10.38,37.9-.76,13.53,4.14,27.38.74,40.71-2.21,8.66-6.6,16.63-12.31,23.48-8.88,10.63-21.58,19.95-35.1,23.64-4.66,1.27-11.59,3.27-13.78,8.07-2.35,5.14-3.59,14.2-3.59,19.77,0,38.13,42.92,46.52,54.36,48.81,12.58,2.52,42.08,1.56,43.72,10.79,4.11,23.22,4.03,46.86,5.92,70.29,1.83,22.43,9.1,45.59,4.42,68.08-1.83,8.81-2.48,17.49-3.51,26.41-2.13,18.34-4.24,36.69-6.43,55.03-.23,1.93-.45,3.94.13,5.8,2.04,6.47,11.12,7.36,16.68,8.45,9.04,1.78,19.09,1.4,27.8-1.71,4.18-1.48,9.19-3.66,11.99-7.26,3.75-4.8,2.17-10.72,10.34-9.7,6.94.87,14.94,2.95,22.15,2.34,5.1,1.57,11.27,2.29,17.59,2.53-15.42,17.01,25.07,16.67,33,16.67,30.24,0,61.44.58,91.52-1.79,6.63-.52,13.67-1.48,18.77-5.75.76-.64,1.43-1.36,2.07-2.1,8.25-.81,33.86-1.78,52.94,14.3,23.04,19.41,21.16-.12,17.59-7.62ZM139.85,131.08c-1.97,17.19-29.77,28.08-43.4,17.9-7.97-5.95-8.9-17.28-8.9-26.45,0-14.39,10.75-28.6,25.93-28.6,10.49,0,18.25,5.98,22.02,15.58,1.55,3.93,3.07,8.19,3.89,12.51.57,3.02.8,6.07.46,9.06ZM175,148.98c-7.97-5.95-8.9-17.28-8.9-26.45,0-14.39,10.75-28.6,25.93-28.6,10.49,0,18.25,5.98,22.02,15.58,1.55,3.93,3.07,8.19,3.89,12.51.57,3.02.8,6.07.46,9.06-1.97,17.19-29.77,28.08-43.4,17.9ZM206.11,436.97c.15-3.99.16-8.21.16-12.48,8.23,7.8,14.07,10.33,15.52,8.9-4.03,3.97-9.7,4.23-15.68,3.58Z"/>
      <g>
        <path class="cls-2" d="M139.49,121.38c.56,2.98.79,5.98.45,8.93-1.94,16.94-29.34,27.68-42.77,17.64-7.86-5.87-8.77-17.03-8.77-26.07,0-14.18,10.59-28.19,25.56-28.19,10.34,0,17.98,5.9,21.7,15.35,1.53,3.87,3.02,8.07,3.83,12.33Z"/>
        <path class="cls-1" d="M129.75,121.89c.34,1.79.48,3.6.27,5.38-1.17,10.2-17.66,16.66-25.74,10.62-4.73-3.53-5.28-10.25-5.28-15.69,0-8.53,6.38-16.96,15.38-16.96,6.22,0,10.82,3.55,13.06,9.24.92,2.33,1.82,4.86,2.3,7.42Z"/>
        <path class="cls-2" d="M216.91,121.38c.56,2.98.79,5.98.45,8.93-1.94,16.94-29.34,27.68-42.77,17.64-7.86-5.87-8.77-17.03-8.77-26.07,0-14.18,10.59-28.19,25.56-28.19,10.34,0,17.98,5.9,21.7,15.35,1.53,3.87,3.02,8.07,3.83,12.33Z"/>
        <path class="cls-1" d="M207.17,121.89c.34,1.79.48,3.6.27,5.38-1.17,10.2-17.66,16.66-25.74,10.62-4.73-3.53-5.28-10.25-5.28-15.69,0-8.53,6.38-16.96,15.38-16.96,6.22,0,10.82,3.55,13.06,9.24.92,2.33,1.82,4.86,2.3,7.42Z"/>
      </g>
    </g>
  </g>
</svg>