<?xml version="1.0" encoding="UTF-8"?>
<svg id="Layer_2" data-name="Layer 2" xmlns="http://www.w3.org/2000/svg" viewBox="0 0 423.21 497.65">
  <defs>
    <style>
      .cls-1 {
        fill: #1e1e1e;
      }

      .cls-1, .cls-2 {
        stroke-width: 0px;
      }

      .cls-2 {
        fill: #fff;
      }
    </style>
  </defs>
  <g id="Layer_1-2" data-name="Layer 1">
    <g>
      <g>
        <path class="cls-1" d="M139.49,121.38c-.81-4.26-2.31-8.45-3.83-12.33-3.72-9.45-11.36-15.35-21.71-15.35-3.27,0-6.34.67-9.13,1.87,2.67-1.05,5.57-1.64,8.66-1.64,10.49,0,18.24,5.98,22.02,15.57,1.55,3.93,3.06,8.19,3.88,12.51.56,2.96.79,5.94.48,8.88.03-.19.06-.39.08-.58.34-2.95.11-5.95-.45-8.93ZM191.38,93.7c-14.97,0-25.56,14.01-25.56,28.19,0,5.47.33,11.72,2.34,17.1-1.76-5.25-2.06-11.21-2.06-16.46,0-14.39,10.75-28.6,25.94-28.6,2.55,0,4.93.35,7.14,1.04-2.38-.84-4.99-1.27-7.8-1.27Z"/>
        <g>
          <path class="cls-2" d="M139.94,130.31c-.02.19-.05.39-.08.58v.03c-2.52,16.6-29.42,26.95-42.7,17.04-7.85-5.87-8.76-17.04-8.76-26.07,0-11.08,6.46-22.05,16.42-26.32,2.79-1.2,5.86-1.87,9.13-1.87,10.35,0,17.99,5.9,21.71,15.35,1.52,3.88,3.02,8.07,3.83,12.33.56,2.98.79,5.98.45,8.93Z"/>
          <path class="cls-1" d="M129.75,121.89c.34,1.79.48,3.6.27,5.38-1.17,10.2-17.66,16.66-25.74,10.62-4.73-3.53-5.28-10.25-5.28-15.69,0-8.53,6.38-16.96,15.38-16.96,6.22,0,10.82,3.55,13.06,9.24.92,2.33,1.82,4.86,2.3,7.42Z"/>
          <path class="cls-2" d="M217.36,130.31c-1.93,16.95-29.34,27.68-42.77,17.65-3.1-2.31-5.12-5.45-6.43-8.97-2.01-5.38-2.34-11.63-2.34-17.1,0-14.18,10.59-28.19,25.56-28.19,2.81,0,5.42.43,7.8,1.27,6.4,2.2,11.19,7.2,13.9,14.08,1.53,3.88,3.03,8.07,3.83,12.33.57,2.98.79,5.98.45,8.93Z"/>
          <path class="cls-1" d="M207.17,121.89c.34,1.79.48,3.6.27,5.38-1.17,10.2-17.66,16.66-25.74,10.62-4.73-3.53-5.28-10.25-5.28-15.69,0-8.53,6.38-16.96,15.38-16.96,6.22,0,10.82,3.55,13.06,9.24.92,2.33,1.82,4.86,2.3,7.42Z"/>
        </g>
      </g>
      <path class="cls-1" d="M421.06,481.69c-1.38-2.9-3.31-5.61-5.26-8.24-2-2.69-4.12-5.32-6.31-7.91-.62-.73-1.25-1.47-1.89-2.2-.47-.54-1.07-1.05-1.46-1.66-.35-.56-.86-2.1.41-2.13.87,0,1.92,1.25,2.76.56.53-.44.21-1.3,0-1.79-1.07-2.41-3.72-4.33-6.05-5.85-7.96-5.22-18.59-12.67-38-14.07l-13.85-.66c-.28-.85-.56-1.7-.85-2.56,2.3-2.16,2.2-4.22-.33-4.21-.47,0-.84.03-1.15.08-2.88-7.8-6.14-15.47-8.58-22.86-8.77-26.56-20.07-52.22-32.48-77.26-18.38-37.13-45.87-75.56-47.89-118.2-.66-13.96,2.09-27.84,2.09-41.78,0-23.05-2.01-46.09-6.29-68.74-2.32-12.27-6.14-24.24-8.95-36.39-2.72-11.75-2.94-23.96-6.47-35.64-3.39-11.16-10.79-28.97-24.3-30.13-12.12-1.04-19.58,13.22-23.44,22.61-3.97,9.66-5.49,19.75-7.65,29.87-1.58,7.39-4.75,13.8-13,14.88-7.78,1.02-15.28,3.71-23.16,4.15-11.39.64-18.62-8.47-25.33-16.49-12.79-15.27-29.58-21.05-49.52-19.85-.58.04-1.15.08-1.72.13-9.4.9-18.11,4.5-22.29,13.58-11.49,24.98-12.68,39.54.03,49.58,3.05,2.41,8.8,2.15,15.77.17.28,4.87.13,9.71-1.09,14.49-2.22,8.66-6.6,16.63-12.32,23.47-8.88,10.64-21.58,19.95-35.1,23.64-4.66,1.28-11.59,3.28-13.78,8.08-2.35,5.13-3.59,14.19-3.59,19.77,0,38.12,42.91,46.51,54.36,48.8,12.58,2.52,42.07,1.57,43.71,10.79,4.12,23.21,4.03,46.85,5.92,70.29,1.83,22.44,9.1,45.59,4.43,68.08-1.84,8.81-2.49,17.49-3.52,26.42-2.12,18.33-4.24,36.68-6.43,55.02-.23,1.93-.45,3.94.13,5.81,2.03,6.47,11.11,7.35,16.67,8.45,9.04,1.77,19.1,1.4,27.81-1.71,4.18-1.48,9.19-3.66,11.99-7.27,3.75-4.8,2.17-10.71,10.34-9.69,6.95.87,14.95,2.95,22.15,2.34,5.1,1.57,11.28,2.28,17.6,2.53-15.42,17,25.07,16.67,33,16.66,30.24,0,61.44.58,91.52-1.79,6.64-.52,13.67-1.47,18.77-5.75.76-.64,1.43-1.36,2.07-2.1,8.24-.81,33.86-1.79,52.94,14.29,23.04,19.42,21.17-.12,17.6-7.61ZM139.94,130.31c-.02.19-.05.39-.08.58v.03c0,.05,0,.11-.02.16-1.96,17.19-29.77,28.08-43.4,17.9-7.97-5.96-8.9-17.28-8.9-26.45,0-11.47,6.83-22.82,17.28-26.96,2.79-1.2,5.86-1.87,9.13-1.87,10.35,0,17.99,5.9,21.71,15.35,1.52,3.88,3.02,8.07,3.83,12.33.56,2.98.79,5.98.45,8.93ZM175,148.98c-3.4-2.55-5.52-6.07-6.84-9.99-2.01-5.38-2.34-11.63-2.34-17.1,0-14.18,10.59-28.19,25.56-28.19,2.81,0,5.42.43,7.8,1.27,6.88,2.08,12.02,7.27,14.88,14.53,1.55,3.93,3.06,8.19,3.88,12.51.57,3.02.8,6.07.46,9.07-1.96,17.19-29.77,28.08-43.4,17.9ZM206.11,436.97c.15-3.99.16-8.21.16-12.48,8.23,7.8,14.07,10.33,15.52,8.9-4.03,3.97-9.69,4.24-15.68,3.58Z"/>
    </g>
  </g>
</svg>