<?xml version="1.0" encoding="UTF-8"?>
<svg id="Layer_2" data-name="Layer 2" xmlns="http://www.w3.org/2000/svg" viewBox="0 0 180 180.02">
  <defs>
    <style>
      .cls-1 {
        fill: #004574;
        stroke-width: 0px;
      }
    </style>
  </defs>
  <g id="Layer_1-2" data-name="Layer 1">
    <path class="cls-1" d="M174.2,96.28c-4.42-2.87-10.46-3.17-15.56-3.3-4-.1-7.99.03-12,.05-3.67.02-7.6.68-11.2-.29-1.06-.28-2.11-.75-2.83-1.57-.42-.48-.72-1.06-.85-1.68-.06-.29-.09-.6.01-.88.13-.34.43-.58.73-.79,4.27-2.96,9.52-1.28,14.28-1.05,3.62.17,7.25.28,10.87.24,4.86-.05,11.23.29,15.65-2.13,9.78-5.34,7.41-20.2-.67-21.54-6.98-1.16-8.49-5.51-5.39-14.81,2.02-6.06-2.36-15.82-13.46-13.46-5.97,1.27-11.11,6.36-15.24,10.54-2.59,2.61-5.03,5.37-7.38,8.19-2.22,2.66-4.53,5.68-7.89,6.93-4.03,1.5-6.13-2.93-4.02-6.09,1.65-2.47,4.65-4.08,6.85-6.03,3.18-2.83,6.3-5.72,9.28-8.76,3.42-3.48,8.19-7.78,9.62-12.63,3.14-10.69-9.04-19.52-15.71-14.76-5.76,4.11-9.9,2.1-14.28-6.66-2.86-5.71-12.85-9.52-19.04,0-3.2,4.93-3.31,11.83-3.33,17.49,0,3.64.19,7.28.5,10.91.15,1.7.32,3.4.52,5.11.32,2.78,1.41,5.13-.93,7.42-1.63,1.61-4.23,2.07-6.11.58-2.17-1.73-1.73-4.86-1-7.21,1.73-5.57,1.4-11.09,1.39-16.89,0-5.17.45-12.08-2.12-16.81-5.33-9.79-20.19-7.42-21.54.66-1.17,6.98-5.52,8.48-14.81,5.38-6.06-2.02-15.82,2.35-13.47,13.46,1.21,5.71,5.57,10.18,9.53,14.2,3.5,3.55,7.2,6.9,11.07,10.03,2.73,2.2,6.18,4.25,7.02,7.93.24,1.07.19,2.28-.5,3.13-.67.82-1.81,1.14-2.86,1.07-4.73-.32-7.4-4.96-10.22-8.13-2.58-2.9-5.22-5.76-7.96-8.52-3.79-3.82-8.56-9.34-13.93-10.92-10.69-3.14-19.52,9.04-14.76,15.71,4.11,5.76,2.1,9.9-6.66,14.28-5.71,2.86-9.52,12.85,0,19.04,4.42,2.87,10.46,3.17,15.56,3.3,4,.1,7.99-.03,12-.05,3.67-.02,7.6-.68,11.2.29,1.06.28,2.11.75,2.83,1.57.42.48.72,1.06.85,1.68.06.29.09.6-.01.88-.13.34-.43.58-.73.79-4.27,2.96-9.52,1.28-14.28,1.05-3.62-.17-7.25-.28-10.87-.24-4.86.05-11.23-.29-15.65,2.13-9.78,5.34-7.41,20.2.67,21.54,6.98,1.16,8.49,5.51,5.39,14.81-2.02,6.06,2.36,15.82,13.46,13.46,5.97-1.27,11.11-6.36,15.24-10.54,2.59-2.61,5.03-5.37,7.38-8.19,2.22-2.66,4.53-5.68,7.89-6.93,4.03-1.5,6.13,2.93,4.02,6.09-1.65,2.47-4.65,4.08-6.85,6.03-3.18,2.83-6.3,5.72-9.28,8.76-3.42,3.48-8.19,7.78-9.62,12.63-3.14,10.69,9.04,19.52,15.71,14.76,5.76-4.11,9.9-2.1,14.28,6.66,2.86,5.71,12.85,9.52,19.04,0,3.2-4.93,3.31-11.83,3.33-17.49,0-3.64-.19-7.28-.5-10.91-.15-1.7-.32-3.4-.52-5.1-.23-2-.21-4.35.77-6.24,1.91-3.68,7.2-4.69,7.86.38.45,3.47-1.76,6.7-1.89,10.13-.16,3.93-.1,7.87-.09,11.81,0,5.17-.45,12.08,2.12,16.81,5.33,9.79,20.19,7.42,21.54-.66,1.17-6.98,5.52-8.48,14.81-5.38,6.06,2.02,15.82-2.35,13.47-13.46-1.21-5.71-5.57-10.18-9.53-14.2-3.5-3.55-7.2-6.9-11.07-10.03-2.73-2.2-6.18-4.25-7.02-7.93-.24-1.07-.19-2.28.5-3.13.67-.82,1.81-1.14,2.86-1.07,4.73.32,7.4,4.96,10.22,8.13,2.58,2.9,5.22,5.76,7.96,8.52,3.79,3.82,8.56,9.34,13.93,10.92,10.69,3.14,19.52-9.04,14.76-15.71-4.11-5.76-2.1-9.9,6.66-14.28,5.71-2.86,9.52-12.85,0-19.04ZM90,111.17h0c-11.11-.66-19.92-9.88-19.92-21.16s8.81-20.5,19.92-21.16h0c11.11.66,19.92,9.88,19.92,21.16s-8.81,20.5-19.92,21.16Z"/>
  </g>
</svg>