<?xml version="1.0" encoding="UTF-8"?>
<svg id="Layer_1" data-name="Layer 1" xmlns="http://www.w3.org/2000/svg" viewBox="0 0 1920 1080">
  <defs>
    <style>
      .cls-1 {
        fill: #a1cae6;
      }

      .cls-1, .cls-2 {
        stroke-width: 0px;
      }

      .cls-2 {
        fill: #668fac;
      }
    </style>
  </defs>
  <polygon class="cls-1" points="1920 460.24 1920 954 657 954 657 896.69 851.99 896.69 851.99 820.67 1035.15 820.67 1035.15 749.24 1203.55 749.24 1203.55 677.35 1399.55 677.35 1399.55 603.56 1582.72 603.56 1582.72 532.13 1751.12 532.13 1751.12 460.24 1920 460.24"/>
  <polygon class="cls-2" points="1920 460.24 1920 954 795.11 954 795.11 896.69 990.09 896.69 990.09 820.67 1173.26 820.67 1173.26 749.24 1341.66 749.24 1341.66 677.35 1537.66 677.35 1537.66 603.56 1720.83 603.56 1720.83 532.13 1889.23 532.13 1889.23 460.24 1920 460.24"/>
</svg>