<?xml version="1.0" encoding="UTF-8"?>
<svg id="Layer_2" data-name="Layer 2" xmlns="http://www.w3.org/2000/svg" viewBox="0 0 499.35 1689">
  <defs>
    <style>
      .cls-1 {
        fill: none;
      }

      .cls-1, .cls-2 {
        stroke-width: 0px;
      }

      .cls-2 {
        fill: #fbf7f4;
      }
    </style>
  </defs>
  <g id="Layer_1-2" data-name="Layer 1">
    <g>
      <path class="cls-1" d="M311.67,135.18c-14.93-14.93-35.18-24.55-57.57-25.68v59.07h78.54c-4.4-12.68-11.66-24.07-20.97-33.39Z"/>
      <path class="cls-1" d="M290.27,307.46c.4-3.77.94-7.53,1.61-11.27.33-1.87.7-3.73,1.1-5.59.2-.92.39-1.86.62-2.78.06-.26,1.03-1.95,1.2-1.74,1.72,2.15,3.13,4.55,4.19,7.09,4.67-.91,9.47-1.11,14.2-.58.71.08,1.44.17,2.14,0,2.55-.63,2.94-4.02,4.33-6.25.19-.31.42-.61.75-.76.83-.4,1.78.34,2.18,1.17.4.83.53,1.79,1.09,2.51.76.96,2.14,1.23,3.34.99,1.2-.24,2.27-.88,3.34-1.48,2.26-1.27,4.63-2.39,7.09-3.27v-29.82h-83.36v59.03h36.09c-.38-2.39-.18-4.84.09-7.25Z"/>
      <path class="cls-1" d="M337.45,197.17c0-6.79-.78-13.4-2.26-19.76h-81.1v69.42h83.36v-49.66Z"/>
      <path class="cls-1" d="M245.26,109.5c-36.37,1.83-67.07,26.06-78.54,59.07h78.54v-59.07Z"/>
      <path class="cls-1" d="M165.91,314.7h79.34v-59.03h-83.36v55.01c0,2.21,1.8,4.01,4.01,4.01Z"/>
      <path class="cls-1" d="M245.26,177.41h-81.1c-1.47,6.36-2.26,12.97-2.26,19.76v49.66h83.36v-69.42Z"/>
      <path class="cls-2" d="M499.35,1689V0H0v1689h499.35ZM254.1,109.5c22.39,1.13,42.64,10.75,57.57,25.68,9.32,9.32,16.57,20.7,20.97,33.39h-78.54v-59.07ZM254.1,177.41h81.1c1.48,6.36,2.26,12.97,2.26,19.76v49.66h-83.36v-69.42ZM254.1,255.68h83.36v29.82c-2.45.88-4.82,2-7.09,3.27-1.07.6-2.13,1.24-3.34,1.48-1.2.24-2.58-.03-3.34-.99-.57-.72-.7-1.68-1.09-2.51-.4-.83-1.35-1.57-2.18-1.17-.33.16-.56.46-.75.76-1.39,2.23-1.79,5.62-4.33,6.25-.7.18-1.43.08-2.14,0-4.73-.53-9.54-.33-14.2.58-1.06-2.54-2.47-4.94-4.19-7.09-.17-.21-1.14,1.49-1.2,1.74-.23.92-.42,1.86-.62,2.78-.4,1.86-.77,3.72-1.1,5.59-.67,3.74-1.21,7.5-1.61,11.27-.26,2.41-.46,4.86-.09,7.25h-36.09v-59.03ZM245.26,109.5v59.07h-78.54c11.47-33.01,42.18-57.24,78.54-59.07ZM161.9,197.17c0-6.79.78-13.4,2.26-19.76h81.1v69.42h-83.36v-49.66ZM161.9,255.68h83.36v59.03h-79.34c-2.21,0-4.01-1.8-4.01-4.01v-55.01Z"/>
    </g>
  </g>
</svg>