<?xml version="1.0" encoding="UTF-8"?>
<svg id="Layer_1" data-name="Layer 1" xmlns="http://www.w3.org/2000/svg" viewBox="0 0 1920 1080">
  <defs>
    <style>
      .cls-1 {
        fill: #a1cae6;
      }

      .cls-1, .cls-2 {
        stroke-width: 0px;
      }

      .cls-2 {
        fill: #668fac;
      }
    </style>
  </defs>
  <polygon class="cls-1" points="1920 586.24 1920 1080 657 1080 657 1022.69 851.99 1022.69 851.99 946.67 1035.15 946.67 1035.15 875.24 1203.55 875.24 1203.55 803.35 1399.55 803.35 1399.55 729.56 1582.72 729.56 1582.72 658.13 1751.12 658.13 1751.12 586.24 1920 586.24"/>
  <polygon class="cls-2" points="1920 586.24 1920 1080 795.11 1080 795.11 1022.69 990.09 1022.69 990.09 946.67 1173.26 946.67 1173.26 875.24 1341.66 875.24 1341.66 803.35 1537.66 803.35 1537.66 729.56 1720.83 729.56 1720.83 658.13 1889.23 658.13 1889.23 586.24 1920 586.24"/>
</svg>