<?xml version="1.0" encoding="UTF-8"?>
<svg id="Layer_2" data-name="Layer 2" xmlns="http://www.w3.org/2000/svg" viewBox="0 0 931 3149">
  <defs>
    <style>
      .cls-1 {
        fill: none;
      }

      .cls-1, .cls-2 {
        stroke-width: 0px;
      }

      .cls-2 {
        fill: #fbf7f4;
      }
    </style>
  </defs>
  <g id="Layer_1-2" data-name="Layer 1">
    <g>
      <path class="cls-1" d="M581.08,252.03c-27.84-27.84-65.59-45.77-107.34-47.88v110.13h146.44c-8.21-23.65-21.73-44.88-39.1-62.25Z"/>
      <path class="cls-1" d="M541.19,573.23c.75-7.03,1.75-14.04,3-21.01.62-3.48,1.31-6.96,2.05-10.42.37-1.72.73-3.46,1.16-5.18.12-.48,1.92-3.64,2.24-3.25,3.2,4.01,5.83,8.48,7.81,13.22,8.7-1.7,17.66-2.07,26.48-1.09,1.33.14,2.69.32,3.99-.01,4.75-1.18,5.49-7.49,8.08-11.65.36-.57.79-1.13,1.4-1.42,1.54-.74,3.31.64,4.06,2.18.74,1.54.98,3.34,2.04,4.68,1.41,1.79,3.99,2.29,6.22,1.85,2.24-.44,4.23-1.64,6.22-2.76,4.22-2.37,8.64-4.45,13.21-6.09v-55.59h-155.41v110.05h67.29c-.7-4.45-.33-9.02.16-13.51Z"/>
      <path class="cls-1" d="M629.15,367.61c0-12.66-1.45-24.99-4.21-36.84h-151.2v129.43h155.41v-92.59Z"/>
      <path class="cls-1" d="M457.26,204.15c-67.8,3.41-125.05,48.58-146.44,110.13h146.44v-110.13Z"/>
      <path class="cls-1" d="M309.33,586.74h147.93v-110.05h-155.41v102.57c0,4.12,3.36,7.48,7.48,7.48Z"/>
      <path class="cls-1" d="M457.26,330.77h-151.2c-2.75,11.85-4.21,24.18-4.21,36.84v92.59h155.41v-129.43Z"/>
      <path class="cls-2" d="M931,3149V0H0v3149h931ZM473.74,204.15c41.75,2.11,79.5,20.04,107.34,47.88,17.37,17.37,30.89,38.6,39.1,62.25h-146.44v-110.13ZM473.74,330.77h151.2c2.76,11.85,4.21,24.18,4.21,36.84v92.59h-155.41v-129.43ZM473.74,476.69h155.41v55.59c-4.57,1.64-8.99,3.72-13.21,6.09-1.99,1.12-3.98,2.32-6.22,2.76-2.23.44-4.81-.06-6.22-1.85-1.06-1.34-1.3-3.14-2.04-4.68-.75-1.54-2.52-2.92-4.06-2.18-.61.29-1.04.85-1.4,1.42-2.59,4.16-3.33,10.47-8.08,11.65-1.3.33-2.66.15-3.99.01-8.82-.98-17.78-.61-26.48,1.09-1.98-4.74-4.61-9.21-7.81-13.22-.32-.39-2.12,2.77-2.24,3.25-.43,1.72-.79,3.46-1.16,5.18-.74,3.46-1.43,6.94-2.05,10.42-1.25,6.97-2.25,13.98-3,21.01-.49,4.49-.86,9.06-.16,13.51h-67.29v-110.05ZM457.26,204.15v110.13h-146.44c21.39-61.55,78.64-106.72,146.44-110.13ZM301.85,367.61c0-12.66,1.46-24.99,4.21-36.84h151.2v129.43h-155.41v-92.59ZM301.85,476.69h155.41v110.05h-147.93c-4.12,0-7.48-3.36-7.48-7.48v-102.57Z"/>
    </g>
  </g>
</svg>