<?xml version="1.0" encoding="UTF-8"?>
<svg id="Layer_1" data-name="Layer 1" xmlns="http://www.w3.org/2000/svg" viewBox="0 0 1920 1080">
  <defs>
    <style>
      .cls-1 {
        fill: #fbf7f4;
      }

      .cls-1, .cls-2, .cls-3 {
        stroke-width: 0px;
      }

      .cls-2 {
        fill: #e0e9ee;
      }

      .cls-3 {
        fill: #ccdae3;
      }
    </style>
  </defs>
  <g>
    <polygon class="cls-3" points="1080.55 778.02 1080.55 719.73 1002.34 719.73 1002.34 664.95 930.44 664.95 930.44 609.82 844.67 609.82 844.67 565.93 758.47 565.93 758.47 946.22 844.25 946.22 844.67 946.22 930.02 946.22 930.44 946.22 1002.34 946.22 1080.55 946.22 1163.81 946.22 1163.81 778.02 1080.55 778.02"/>
    <path class="cls-1" d="M-134.18,53v1027h2188.35V53H-134.18ZM1155.27,879.28c0,6.8-3.02,12.56-7.07,14.22h-336.96c-5.23,0-9.5-6.61-9.5-14.71v-416.25c0-170.51,46.16-300.12,173.57-319.35,81.83,11.79,179.96,80.73,179.96,319.85v416.23Z"/>
    <path class="cls-2" d="M1148.2,893.54c-.77.31-1.58.49-2.43.49h-396.59c-5.23,0-9.5-6.61-9.5-14.71v-416.23c0-185,54.33-321.84,207.79-321.84,8.93,0,18.26.6,27.83,1.99-127.41,19.23-173.57,148.84-173.57,319.35v416.25c0,8.09,4.27,14.71,9.5,14.71h336.96Z"/>
  </g>
  <rect class="cls-1" width="1920" height="52.8"/>
  <rect class="cls-1" y="955" width="1920" height="125"/>
</svg>