<?xml version="1.0" encoding="UTF-8"?>
<svg id="Layer_2" data-name="Layer 2" xmlns="http://www.w3.org/2000/svg" viewBox="0 0 1920 125">
  <defs>
    <style>
      .cls-1 {
        fill: #bdcd52;
      }

      .cls-1, .cls-2 {
        stroke-width: 0px;
      }

      .cls-2 {
        fill: #fbf7f4;
      }
    </style>
  </defs>
  <g id="Layer_1-2" data-name="Layer 1">
    <g>
      <polygon class="cls-1" points="116.2 0 11.81 63.32 201.34 63.32 284.86 0 116.2 0"/>
      <polygon class="cls-2" points="284.86 0 201.34 63.32 390.88 63.32 453.52 0 284.86 0"/>
      <polygon class="cls-1" points="453.52 0 390.88 63.32 580.42 63.32 622.19 0 453.52 0"/>
      <polygon class="cls-2" points="622.19 0 580.42 63.32 769.95 63.32 790.85 0 622.19 0"/>
      <polygon class="cls-1" points="790.85 0 769.95 63.32 959.49 63.32 959.51 0 790.85 0"/>
      <polygon class="cls-2" points="959.51 0 959.49 63.32 1149.02 63.32 1128.17 0 959.51 0"/>
      <polygon class="cls-1" points="1128.17 0 1149.02 63.32 1338.56 63.32 1296.83 0 1128.17 0"/>
      <polygon class="cls-2" points="1296.83 0 1338.56 63.32 1528.1 63.32 1465.5 0 1296.83 0"/>
      <polygon class="cls-1" points="1465.5 0 1528.1 63.32 1717.63 63.32 1634.16 0 1465.5 0"/>
      <polygon class="cls-2" points="1634.16 0 1717.63 63.32 1907.17 63.32 1812.66 5.97 1802.82 0 1634.16 0"/>
      <polygon class="cls-1" points="1802.82 0 1812.66 5.97 1907.17 63.32 1920 63.32 1920 0 1802.82 0"/>
      <polygon class="cls-1" points="1802.82 0 1812.66 5.97 1802.82 0 1802.82 0"/>
      <polygon class="cls-1" points="11.96 63.47 0 63.47 0 70.73 11.96 63.47"/>
      <polygon class="cls-2" points="11.96 63.47 0 70.73 0 125 120.44 125 201.54 63.47 11.96 63.47"/>
      <polygon class="cls-1" points="201.54 63.47 120.44 125 330.3 125 391.13 63.47 201.54 63.47"/>
      <polygon class="cls-2" points="391.13 63.47 330.3 125 540.17 125 580.71 63.47 391.13 63.47"/>
      <polygon class="cls-1" points="580.71 63.47 540.17 125 750.04 125 770.3 63.47 580.71 63.47"/>
      <polygon class="cls-2" points="770.3 63.47 750.04 125 959.9 125 959.88 63.47 770.3 63.47"/>
      <polygon class="cls-1" points="959.88 63.47 959.9 125 1169.77 125 1149.47 63.47 959.88 63.47"/>
      <polygon class="cls-2" points="1149.47 63.47 1169.77 125 1379.64 125 1339.05 63.47 1149.47 63.47"/>
      <polygon class="cls-1" points="1339.05 63.47 1379.64 125 1589.5 125 1528.64 63.47 1339.05 63.47"/>
      <polygon class="cls-2" points="1528.64 63.47 1589.5 125 1799.37 125 1718.22 63.47 1528.64 63.47"/>
      <polygon class="cls-1" points="1718.22 63.47 1799.37 125 1920 125 1920 70.86 1907.81 63.47 1718.22 63.47"/>
      <polygon class="cls-2" points="1920 70.86 1920 63.47 1907.81 63.47 1920 70.86"/>
    </g>
  </g>
</svg>