<?xml version="1.0" encoding="UTF-8"?>
<svg id="Layer_1" data-name="Layer 1" xmlns="http://www.w3.org/2000/svg" viewBox="0 0 1920 1080">
  <defs>
    <style>
      .cls-1 {
        fill: #bdcd52;
      }

      .cls-1, .cls-2 {
        stroke-width: 0px;
      }

      .cls-2 {
        fill: #fbf7f4;
      }
    </style>
  </defs>
  <rect class="cls-2" y="955" width="1920" height="125"/>
  <g>
    <polygon class="cls-1" points="116.2 955 11.81 1018.32 201.34 1018.32 284.86 955 116.2 955"/>
    <polygon class="cls-2" points="284.86 955 201.34 1018.32 390.88 1018.32 453.52 955 284.86 955"/>
    <polygon class="cls-1" points="453.52 955 390.88 1018.32 580.42 1018.32 622.19 955 453.52 955"/>
    <polygon class="cls-2" points="622.19 955 580.42 1018.32 769.95 1018.32 790.85 955 622.19 955"/>
    <polygon class="cls-1" points="790.85 955 769.95 1018.32 959.49 1018.32 959.51 955 790.85 955"/>
    <polygon class="cls-2" points="959.51 955 959.49 1018.32 1149.02 1018.32 1128.17 955 959.51 955"/>
    <polygon class="cls-1" points="1128.17 955 1149.02 1018.32 1338.56 1018.32 1296.83 955 1128.17 955"/>
    <polygon class="cls-2" points="1296.83 955 1338.56 1018.32 1528.1 1018.32 1465.5 955 1296.83 955"/>
    <polygon class="cls-1" points="1465.5 955 1528.1 1018.32 1717.63 1018.32 1634.16 955 1465.5 955"/>
    <polygon class="cls-2" points="1634.16 955 1717.63 1018.32 1907.17 1018.32 1812.66 960.97 1802.82 955 1634.16 955"/>
    <polygon class="cls-1" points="1802.82 955 1812.66 960.97 1907.17 1018.32 1920 1018.32 1920 955 1802.82 955"/>
    <polygon class="cls-1" points="1802.82 955 1812.66 960.97 1802.82 955 1802.82 955"/>
    <polygon class="cls-1" points="11.96 1018.47 0 1018.47 0 1025.73 11.96 1018.47"/>
    <polygon class="cls-2" points="11.96 1018.47 0 1025.73 0 1080 120.44 1080 201.54 1018.47 11.96 1018.47"/>
    <polygon class="cls-1" points="201.54 1018.47 120.44 1080 330.3 1080 391.13 1018.47 201.54 1018.47"/>
    <polygon class="cls-2" points="391.13 1018.47 330.3 1080 540.17 1080 580.71 1018.47 391.13 1018.47"/>
    <polygon class="cls-1" points="580.71 1018.47 540.17 1080 750.04 1080 770.3 1018.47 580.71 1018.47"/>
    <polygon class="cls-2" points="770.3 1018.47 750.04 1080 959.9 1080 959.88 1018.47 770.3 1018.47"/>
    <polygon class="cls-1" points="959.88 1018.47 959.9 1080 1169.77 1080 1149.47 1018.47 959.88 1018.47"/>
    <polygon class="cls-2" points="1149.47 1018.47 1169.77 1080 1379.64 1080 1339.05 1018.47 1149.47 1018.47"/>
    <polygon class="cls-1" points="1339.05 1018.47 1379.64 1080 1589.5 1080 1528.64 1018.47 1339.05 1018.47"/>
    <polygon class="cls-2" points="1528.64 1018.47 1589.5 1080 1799.37 1080 1718.22 1018.47 1528.64 1018.47"/>
    <polygon class="cls-1" points="1718.22 1018.47 1799.37 1080 1920 1080 1920 1025.86 1907.81 1018.47 1718.22 1018.47"/>
    <polygon class="cls-2" points="1920 1025.86 1920 1018.47 1907.81 1018.47 1920 1025.86"/>
  </g>
</svg>