<?xml version="1.0" encoding="UTF-8"?>
<svg id="Layer_1" data-name="Layer 1" xmlns="http://www.w3.org/2000/svg" viewBox="0 0 1920 1080">
  <defs>
    <style>
      .cls-1 {
        fill: none;
      }

      .cls-1, .cls-2, .cls-3, .cls-4 {
        stroke-width: 0px;
      }

      .cls-2 {
        fill: #fbf7f4;
      }

      .cls-3 {
        fill: #e0e9ee;
      }

      .cls-4 {
        fill: #ccdae3;
      }
    </style>
  </defs>
  <rect class="cls-2" width="1920" height="52.8"/>
  <rect class="cls-2" y="955" width="1920" height="125"/>
  <g>
    <polygon class="cls-4" points="1064.88 689.78 1064.88 638.58 996.19 638.58 996.19 590.47 933.04 590.47 933.04 542.05 857.71 542.05 857.71 503.5 782 503.5 782 837.5 857.34 837.5 857.71 837.5 932.67 837.5 933.04 837.5 996.19 837.5 1064.88 837.5 1138 837.5 1138 689.78 1064.88 689.78"/>
    <path class="cls-2" d="M-2,53v902h1922V53H-2ZM1130.5,778.71c0,5.97-2.65,11.03-6.21,12.49h-295.95c-4.59,0-8.34-5.81-8.34-12.92v-365.58c0-149.76,40.54-263.59,152.44-280.48,71.87,10.35,158.06,70.9,158.06,280.92v365.57Z"/>
    <path class="cls-3" d="M1124.29,791.23c-.68.27-1.39.43-2.13.43h-348.32c-4.59,0-8.34-5.81-8.34-12.92v-365.57c0-162.48,47.72-282.67,182.5-282.67,7.84,0,16.04.52,24.44,1.75-111.9,16.89-152.44,130.72-152.44,280.48v365.58c0,7.11,3.75,12.92,8.34,12.92h295.95Z"/>
    <rect class="cls-1" width="1920" height="1080"/>
  </g>
</svg>