<svg width="2509" height="4457" viewBox="0 0 2509 4457" fill="none" xmlns="http://www.w3.org/2000/svg">
<path fill-rule="evenodd" clip-rule="evenodd" d="M1 227.549C63.5523 152.032 248.511 1 487.927 1C637.029 1 805.007 75.3587 973.584 149.982C1143.36 225.139 1313.75 300.564 1466.07 300.564C1636.02 300.564 1749.65 266.708 1849.68 236.904C1928.33 213.47 1998.57 192.541 2081.17 192.541C2268.83 192.541 2508 300.564 2508 300.564L2508 703L2508 3754.5V4229.95C2445.45 4305.47 2260.49 4456.5 2021.07 4456.5C1871.97 4456.5 1703.99 4382.14 1535.42 4307.52C1365.64 4232.36 1195.25 4156.94 1042.93 4156.94C872.981 4156.94 759.352 4190.79 659.321 4220.6C580.672 4244.03 510.428 4264.96 427.828 4264.96C240.171 4264.96 1.00003 4156.94 1.00003 4156.94L1.00006 3754.5H1V227.549Z" fill="#004574"/>
<path d="M1 227.549L0.614944 227.23L0.5 227.368V227.549H1ZM973.584 149.982L973.786 149.525L973.786 149.525L973.584 149.982ZM1849.68 236.904L1849.82 237.383L1849.82 237.383L1849.68 236.904ZM2508 300.564L2508.5 300.564L2508.5 300.241L2508.21 300.108L2508 300.564ZM2508 703L2508.5 703V703L2508 703ZM2508 3754.5L2507.5 3754.5V3754.5H2508ZM2508 4229.95L2508.39 4230.27L2508.5 4230.13V4229.95H2508ZM1535.42 4307.52L1535.62 4307.06L1535.62 4307.06L1535.42 4307.52ZM659.321 4220.6L659.464 4221.08L659.464 4221.08L659.321 4220.6ZM1.00003 4156.94L0.500026 4156.94L0.500026 4157.26L0.794216 4157.39L1.00003 4156.94ZM1.00006 3754.5L1.50006 3754.5L1.50006 3754H1.00006V3754.5ZM1 3754.5H0.5V3755H1V3754.5ZM487.927 0.5C248.313 0.5 63.2256 151.643 0.614944 227.23L1.38506 227.867C63.8791 152.422 248.709 1.5 487.927 1.5V0.5ZM973.786 149.525C805.243 74.916 637.158 0.5 487.927 0.5V1.5C636.901 1.5 804.772 75.8013 973.381 150.439L973.786 149.525ZM1466.07 300.064C1313.88 300.064 1143.6 224.696 973.786 149.525L973.381 150.439C1143.13 225.582 1313.62 301.064 1466.07 301.064V300.064ZM1849.54 236.425C1749.51 266.226 1635.94 300.064 1466.07 300.064V301.064C1636.09 301.064 1749.78 267.19 1849.82 237.383L1849.54 236.425ZM2081.17 192.041C1998.49 192.041 1928.18 212.993 1849.54 236.425L1849.82 237.383C1928.48 213.947 1998.66 193.041 2081.17 193.041V192.041ZM2508 300.564C2508.21 300.108 2508.2 300.108 2508.2 300.107C2508.2 300.106 2508.2 300.105 2508.19 300.103C2508.19 300.1 2508.18 300.095 2508.16 300.089C2508.13 300.075 2508.09 300.056 2508.03 300.03C2507.91 299.978 2507.74 299.9 2507.51 299.798C2507.05 299.593 2506.37 299.289 2505.47 298.893C2503.67 298.102 2501.01 296.94 2497.55 295.463C2490.64 292.508 2480.56 288.286 2467.88 283.221C2442.52 273.091 2406.75 259.584 2365.11 246.077C2281.85 219.066 2175.08 192.041 2081.17 192.041V193.041C2174.92 193.041 2281.57 220.027 2364.8 247.028C2406.42 260.527 2442.17 274.026 2467.51 284.15C2480.19 289.212 2490.26 293.43 2497.16 296.382C2500.61 297.858 2503.27 299.018 2505.07 299.809C2505.96 300.204 2506.65 300.507 2507.1 300.711C2507.33 300.813 2507.51 300.89 2507.62 300.942C2507.68 300.968 2507.72 300.987 2507.75 301C2507.77 301.007 2507.78 301.012 2507.78 301.015C2507.79 301.017 2507.79 301.018 2507.79 301.019C2507.79 301.019 2507.79 301.02 2508 300.564ZM2508.5 703L2508.5 300.564L2507.5 300.564L2507.5 703L2508.5 703ZM2508.5 3754.5L2508.5 703L2507.5 703L2507.5 3754.5L2508.5 3754.5ZM2508.5 4229.95V3754.5H2507.5V4229.95H2508.5ZM2021.07 4457C2260.69 4457 2445.77 4305.86 2508.39 4230.27L2507.61 4229.63C2445.12 4305.08 2260.29 4456 2021.07 4456V4457ZM1535.21 4307.97C1703.76 4382.58 1871.84 4457 2021.07 4457V4456C1872.1 4456 1704.23 4381.7 1535.62 4307.06L1535.21 4307.97ZM1042.93 4157.44C1195.12 4157.44 1365.4 4232.8 1535.21 4307.97L1535.62 4307.06C1365.87 4231.92 1195.38 4156.44 1042.93 4156.44V4157.44ZM659.464 4221.08C759.485 4191.27 873.057 4157.44 1042.93 4157.44V4156.44C872.905 4156.44 759.219 4190.31 659.178 4220.12L659.464 4221.08ZM427.828 4265.46C510.512 4265.46 580.822 4244.51 659.464 4221.08L659.178 4220.12C580.521 4243.55 510.345 4264.46 427.828 4264.46V4265.46ZM1.00003 4156.94C0.794216 4157.39 0.795194 4157.39 0.797082 4157.39C0.798926 4157.39 0.801725 4157.39 0.80541 4157.4C0.812779 4157.4 0.823781 4157.4 0.838397 4157.41C0.867631 4157.42 0.911325 4157.44 0.96934 4157.47C1.08537 4157.52 1.25869 4157.6 1.48818 4157.7C1.94717 4157.91 2.63088 4158.21 3.53042 4158.61C5.3295 4159.4 7.99195 4160.56 11.4468 4162.04C18.3565 4164.99 28.4359 4169.21 41.1172 4174.28C66.4794 4184.41 102.251 4197.92 143.888 4211.42C227.153 4238.43 333.92 4265.46 427.828 4265.46V4264.46C334.079 4264.46 227.432 4237.47 144.197 4210.47C102.585 4196.97 66.8346 4183.47 41.4881 4173.35C28.815 4168.29 18.743 4164.07 11.84 4161.12C8.38854 4159.64 5.7293 4158.48 3.93327 4157.69C3.03525 4157.3 2.35305 4156.99 1.89552 4156.79C1.66675 4156.69 1.49416 4156.61 1.37884 4156.56C1.32118 4156.53 1.27785 4156.51 1.24896 4156.5C1.23452 4156.49 1.2237 4156.49 1.2165 4156.48C1.21291 4156.48 1.21024 4156.48 1.20844 4156.48C1.20668 4156.48 1.20584 4156.48 1.00003 4156.94ZM0.500061 3754.5L0.500026 4156.94L1.50003 4156.94L1.50006 3754.5L0.500061 3754.5ZM1 3755H1.00006V3754H1V3755ZM0.5 227.549V3754.5H1.5V227.549H0.5Z" fill="#004574"/>
</svg>
