<?xml version="1.0" encoding="UTF-8"?>
<svg id="Layer_1" data-name="Layer 1" xmlns="http://www.w3.org/2000/svg" viewBox="0 0 1920 4894">
  <defs>
    <style>
      .cls-1 {
        fill: none;
        stroke: #fbf7f4;
        stroke-miterlimit: 10;
        stroke-width: 14px;
      }
    </style>
  </defs>
  <path class="cls-1" d="M13.89,418.24c104.64,162.2,232.2,329.55,403.15,426.1,81.36,45.95,174.07,72.22,267.79,58.86,107.45-15.32,195.64-86.68,300.16-113.44,29.32-7.5,59.32-11.92,89.61-12.26,106.34-1.2,212.47,27.12,307.58,73.76,169.37,83.05,339.03,228.39,311.54,436.22-23.11,174.76-189.08,303.59-312.03,413.55-135.54,121.23-290.86,231.24-462.06,295.63-89.51,33.67-192.56,61.25-286.8,32.17-157.35-48.56-284.4-256.72-218.96-416.95,128.52-314.66,627.52-206.39,770.25,36.86,99.68,169.89,93.88,385.67,67.27,573.99-43.87,310.46-246.6,529.53-561.03,562.24-144.16,15-284.78-8.9-427.35,33.74-79.85,23.88-156.05,67.5-205.68,134.44-107.44,144.9-62.14,381.57,121.45,437.13,135.15,40.9,288.79,18.31,425.43-2.39,136.14-20.63,268.55-63.43,405.79-75.72,274.68-24.6,803.86,54.61,771.79,435.83-14.13,167.97-130.27,318.97-278.35,394.08-91.96,46.65-194.81,65.23-296.7,74.04-106.92,9.24-216.81-3.45-322.44,19.2-81.17,17.41-160.54,58.06-207.68,126.39-121.51,176.15,34.63,406.84,201.86,483.25,327.09,149.45,702.92-90.75,1041.52-88.24"/>
</svg>