<svg width="2133" height="2002" viewBox="0 0 2133 2002" fill="none" xmlns="http://www.w3.org/2000/svg">
<path fill-rule="evenodd" clip-rule="evenodd" d="M1 102.694C54.1655 68.7959 211.368 1 414.857 1C541.584 1 684.354 34.3784 827.633 67.8756C971.936 101.612 1116.75 135.469 1246.22 135.469C1390.66 135.469 1487.24 120.272 1572.26 106.893C1639.1 96.3743 1698.81 86.9796 1769.01 86.9796C1928.51 86.9796 2131.79 135.469 2131.79 135.469L2131.79 316.116L2131.79 1685.88V1899.31C2078.62 1933.2 1921.42 2001 1717.93 2001C1591.2 2001 1448.43 1967.62 1305.15 1934.12C1160.85 1900.39 1016.03 1866.53 886.57 1866.53C742.128 1866.53 645.55 1881.73 560.53 1895.11C493.683 1905.63 433.981 1915.02 363.776 1915.02C204.28 1915.02 1.00002 1866.53 1.00002 1866.53L1 1685.88V102.694Z" fill="#004574"/>
<path d="M1 102.694L0.731193 102.272L0.5 102.42V102.694H1ZM827.633 67.8756L827.747 67.3887L827.747 67.3887L827.633 67.8756ZM1572.26 106.893L1572.18 106.399L1572.18 106.399L1572.26 106.893ZM2131.79 135.469L2132.29 135.469L2132.29 135.075L2131.9 134.983L2131.79 135.469ZM2131.79 316.116L2132.29 316.116L2132.29 316.116L2131.79 316.116ZM2131.79 1685.88L2131.29 1685.88V1685.88H2131.79ZM2131.79 1899.31L2132.06 1899.73L2132.29 1899.58V1899.31H2131.79ZM1305.15 1934.12L1305.27 1933.64L1305.27 1933.64L1305.15 1934.12ZM886.57 1866.53L886.57 1866.03H886.57V1866.53ZM560.53 1895.11L560.608 1895.6L560.608 1895.6L560.53 1895.11ZM1.00002 1866.53L0.500022 1866.53L0.500022 1866.93L0.884008 1867.02L1.00002 1866.53ZM1 1685.88L0.5 1685.88L0.5 1685.88L1 1685.88ZM414.857 0.5C211.27 0.5 53.9742 68.3249 0.731193 102.272L1.26881 103.115C54.3567 69.2669 211.467 1.5 414.857 1.5V0.5ZM827.747 67.3887C684.484 33.8952 541.653 0.5 414.857 0.5V1.5C541.515 1.5 684.225 34.8616 827.519 68.3625L827.747 67.3887ZM1246.22 134.969C1116.82 134.969 972.065 101.129 827.747 67.3887L827.519 68.3625C971.807 102.095 1116.69 135.969 1246.22 135.969V134.969ZM1572.18 106.399C1487.17 119.777 1390.62 134.969 1246.22 134.969V135.969C1390.7 135.969 1487.31 120.767 1572.34 107.387L1572.18 106.399ZM1769.01 86.4796C1698.76 86.4796 1639.02 95.8809 1572.18 106.399L1572.34 107.387C1639.19 96.8677 1698.85 87.4796 1769.01 87.4796V86.4796ZM2131.79 135.469C2131.9 134.983 2131.9 134.983 2131.9 134.982C2131.9 134.982 2131.9 134.982 2131.89 134.981C2131.89 134.979 2131.88 134.977 2131.87 134.974C2131.84 134.968 2131.8 134.959 2131.76 134.948C2131.66 134.924 2131.51 134.89 2131.31 134.844C2130.92 134.752 2130.34 134.615 2129.58 134.438C2128.05 134.082 2125.79 133.561 2122.85 132.898C2116.98 131.572 2108.41 129.677 2097.64 127.404C2076.08 122.857 2045.68 116.794 2010.3 110.732C1939.53 98.6076 1848.8 86.4796 1769.01 86.4796V87.4796C1848.72 87.4796 1939.38 99.5965 2010.13 111.717C2045.5 117.777 2075.89 123.837 2097.43 128.382C2108.2 130.655 2116.76 132.548 2122.63 133.874C2125.57 134.536 2127.83 135.057 2129.35 135.412C2130.12 135.589 2130.7 135.725 2131.09 135.817C2131.28 135.863 2131.43 135.897 2131.52 135.921C2131.57 135.932 2131.61 135.941 2131.64 135.947C2131.65 135.95 2131.66 135.952 2131.66 135.954C2131.67 135.954 2131.67 135.955 2131.67 135.955C2131.67 135.956 2131.67 135.956 2131.79 135.469ZM2132.29 316.116L2132.29 135.469L2131.29 135.469L2131.29 316.116L2132.29 316.116ZM2132.29 1685.88L2132.29 316.116L2131.29 316.116L2131.29 1685.88L2132.29 1685.88ZM2132.29 1899.31V1685.88H2131.29V1899.31H2132.29ZM1717.93 2001.5C1921.52 2001.5 2078.81 1933.68 2132.06 1899.73L2131.52 1898.88C2078.43 1932.73 1921.32 2000.5 1717.93 2000.5V2001.5ZM1305.04 1934.61C1448.3 1968.1 1591.13 2001.5 1717.93 2001.5V2000.5C1591.27 2000.5 1448.56 1967.14 1305.27 1933.64L1305.04 1934.61ZM886.57 1867.03C1015.96 1867.03 1160.72 1900.87 1305.04 1934.61L1305.27 1933.64C1160.98 1899.9 1016.1 1866.03 886.57 1866.03L886.57 1867.03ZM560.608 1895.6C645.622 1882.22 742.168 1867.03 886.57 1867.03V1866.03C742.088 1866.03 645.479 1881.23 560.452 1894.61L560.608 1895.6ZM363.776 1915.52C434.026 1915.52 493.764 1906.12 560.608 1895.6L560.452 1894.61C493.602 1905.13 433.937 1914.52 363.776 1914.52V1915.52ZM1.00002 1866.53C0.884008 1867.02 0.884826 1867.02 0.886417 1867.02C0.88798 1867.02 0.890345 1867.02 0.893468 1867.02C0.899713 1867.02 0.909045 1867.02 0.92145 1867.03C0.94626 1867.03 0.98336 1867.04 1.03263 1867.05C1.13118 1867.08 1.27841 1867.11 1.47339 1867.16C1.86335 1867.25 2.44429 1867.38 3.20868 1867.56C4.73746 1867.92 7.00002 1868.44 9.93605 1869.1C15.8081 1870.43 24.3741 1872.32 35.1514 1874.6C56.7059 1879.14 87.1065 1885.21 122.493 1891.27C193.259 1903.39 283.986 1915.52 363.776 1915.52V1914.52C284.07 1914.52 193.409 1902.4 122.661 1890.28C87.2904 1884.22 56.9025 1878.16 35.3578 1873.62C24.5855 1871.35 16.0242 1869.45 10.1564 1868.13C7.22246 1867.46 4.96193 1866.94 3.4351 1866.59C2.67168 1866.41 2.09169 1866.27 1.70267 1866.18C1.50816 1866.14 1.36139 1866.1 1.2633 1866.08C1.21426 1866.07 1.17739 1866.06 1.1528 1866.05C1.14051 1866.05 1.13129 1866.05 1.12516 1866.05C1.12209 1866.05 1.11981 1866.05 1.11828 1866.04C1.11677 1866.04 1.11604 1866.04 1.00002 1866.53ZM0.5 1685.88L0.500022 1866.53L1.50002 1866.53L1.5 1685.88L0.5 1685.88ZM0.5 102.694V1685.88H1.5V102.694H0.5Z" fill="#004574"/>
</svg>
