<svg width="1922" height="2735" viewBox="0 0 1922 2735" fill="none" xmlns="http://www.w3.org/2000/svg">
<path fill-rule="evenodd" clip-rule="evenodd" d="M1 139.983C48.9061 93.655 190.558 1 373.916 1C488.107 1 616.753 46.6174 745.858 92.3973C875.886 138.504 1006.38 184.776 1123.03 184.776C1253.19 184.776 1340.21 164.006 1416.82 145.722C1477.05 131.346 1530.85 118.506 1594.11 118.506C1737.83 118.506 1921 184.776 1921 184.776L1921 431.662L1921 2303.69L1921 2595.37C1873.09 2641.7 1731.44 2734.35 1548.08 2734.35C1433.89 2734.35 1305.25 2688.73 1176.14 2642.96C1046.11 2596.85 915.621 2550.58 798.965 2550.58C668.812 2550.58 581.788 2571.35 505.179 2589.63C444.945 2604.01 391.148 2616.85 327.889 2616.85C184.17 2616.85 1.00014 2550.58 1.00014 2550.58L1.00017 2303.69H1V139.983Z" fill="#004574"/>
<path d="M1 139.983L0.652418 139.623L0.5 139.771V139.983H1ZM745.858 92.3973L745.691 92.8685L745.691 92.8685L745.858 92.3973ZM1416.82 145.722L1416.94 146.208L1416.94 146.208L1416.82 145.722ZM1921 184.776L1921.5 184.776L1921.5 184.425L1921.17 184.306L1921 184.776ZM1921 431.662L1921.5 431.662L1921.5 431.662L1921 431.662ZM1921 2303.69L1920.5 2303.69L1920.5 2303.69L1921 2303.69ZM1921 2595.37L1921.35 2595.73L1921.5 2595.58L1921.5 2595.37L1921 2595.37ZM1176.14 2642.96L1175.97 2643.43L1175.97 2643.43L1176.14 2642.96ZM505.179 2589.63L505.295 2590.12L505.295 2590.12L505.179 2589.63ZM1.00014 2550.58L0.500142 2550.58L0.500142 2550.93L0.830036 2551.05L1.00014 2550.58ZM1.00017 2303.69L1.50017 2303.69L1.50017 2303.19H1.00017V2303.69ZM1 2303.69H0.5V2304.19H1V2303.69ZM373.916 0.5C190.402 0.5 48.6308 93.2257 0.652418 139.623L1.34758 140.342C49.1813 94.0844 190.714 1.5 373.916 1.5V0.5ZM746.026 91.926C616.946 46.1551 488.21 0.5 373.916 0.5V1.5C488.003 1.5 616.561 47.0797 745.691 92.8685L746.026 91.926ZM1123.03 184.276C1006.48 184.276 876.078 138.042 746.026 91.926L745.691 92.8685C875.694 138.967 1006.27 185.276 1123.03 185.276V184.276ZM1416.7 145.235C1340.1 163.518 1253.13 184.276 1123.03 184.276V185.276C1253.25 185.276 1340.32 164.495 1416.94 146.208L1416.7 145.235ZM1594.11 118.006C1530.78 118.006 1476.93 130.861 1416.7 145.235L1416.94 146.208C1477.18 131.831 1530.92 119.006 1594.11 119.006V118.006ZM1921 184.776C1921.17 184.306 1921.17 184.306 1921.17 184.305C1921.17 184.305 1921.16 184.304 1921.16 184.303C1921.16 184.301 1921.15 184.298 1921.14 184.294C1921.11 184.286 1921.08 184.273 1921.04 184.257C1920.95 184.226 1920.81 184.178 1920.64 184.115C1920.29 183.989 1919.76 183.803 1919.07 183.56C1917.7 183.074 1915.66 182.362 1913.01 181.455C1907.72 179.642 1900 177.053 1890.29 173.945C1870.86 167.73 1843.46 159.444 1811.58 151.157C1747.8 134.586 1666.03 118.006 1594.11 118.006V119.006C1665.91 119.006 1747.58 135.561 1811.32 152.125C1843.19 160.406 1870.57 168.687 1889.98 174.898C1899.69 178.003 1907.4 180.59 1912.69 182.402C1915.33 183.307 1917.37 184.018 1918.74 184.503C1919.43 184.746 1919.95 184.932 1920.3 185.057C1920.48 185.119 1920.61 185.167 1920.7 185.199C1920.74 185.214 1920.77 185.226 1920.8 185.234C1920.81 185.238 1920.82 185.241 1920.82 185.243C1920.82 185.244 1920.83 185.245 1920.83 185.245C1920.83 185.246 1920.83 185.246 1921 184.776ZM1921.5 431.662L1921.5 184.776L1920.5 184.776L1920.5 431.662L1921.5 431.662ZM1921.5 2303.69L1921.5 431.662L1920.5 431.662L1920.5 2303.69L1921.5 2303.69ZM1921.5 2595.37L1921.5 2303.69L1920.5 2303.69L1920.5 2595.37L1921.5 2595.37ZM1548.08 2734.85C1731.6 2734.85 1873.37 2642.13 1921.35 2595.73L1920.65 2595.01C1872.82 2641.27 1731.29 2733.85 1548.08 2733.85V2734.85ZM1175.97 2643.43C1305.05 2689.2 1433.79 2734.85 1548.08 2734.85V2733.85C1434 2733.85 1305.44 2688.27 1176.31 2642.48L1175.97 2643.43ZM798.965 2551.08C915.517 2551.08 1045.92 2597.31 1175.97 2643.43L1176.31 2642.48C1046.31 2596.39 915.725 2550.08 798.965 2550.08V2551.08ZM505.295 2590.12C581.896 2571.83 668.872 2551.08 798.965 2551.08V2550.08C668.751 2550.08 581.681 2570.86 505.063 2589.14L505.295 2590.12ZM327.889 2617.35C391.216 2617.35 445.067 2604.49 505.295 2590.12L505.063 2589.14C444.823 2603.52 391.081 2616.35 327.889 2616.35V2617.35ZM1.00014 2550.58C0.830036 2551.05 0.830793 2551.05 0.832246 2551.05C0.833661 2551.05 0.835812 2551.05 0.838639 2551.05C0.844293 2551.05 0.852729 2551.05 0.863933 2551.06C0.886342 2551.07 0.919825 2551.08 0.964277 2551.09C1.05318 2551.13 1.18596 2551.17 1.36176 2551.24C1.71336 2551.36 2.23706 2551.55 2.92606 2551.79C4.30407 2552.28 6.34329 2552.99 8.98939 2553.9C14.2816 2555.71 22.0013 2558.3 31.7137 2561.41C51.1384 2567.62 78.5349 2575.91 110.424 2584.19C174.195 2600.77 255.966 2617.35 327.889 2617.35V2616.35C256.093 2616.35 174.42 2599.79 110.676 2583.23C78.8079 2574.95 51.4294 2566.67 32.0185 2560.45C22.3131 2557.35 14.5998 2554.76 9.31349 2552.95C6.67032 2552.05 4.6339 2551.33 3.25857 2550.85C2.57091 2550.61 2.04852 2550.42 1.6982 2550.3C1.52304 2550.23 1.3909 2550.19 1.30262 2550.15C1.25849 2550.14 1.22532 2550.13 1.20322 2550.12C1.19217 2550.11 1.18389 2550.11 1.17839 2550.11C1.17564 2550.11 1.1736 2550.11 1.17223 2550.11C1.17089 2550.11 1.17025 2550.11 1.00014 2550.58ZM0.500169 2303.69L0.500142 2550.58L1.50014 2550.58L1.50017 2303.69L0.500169 2303.69ZM1 2304.19H1.00017V2303.19H1V2304.19ZM0.5 139.983V2303.69H1.5V139.983H0.5Z" fill="#004574"/>
</svg>
